<?xml version="1.0" encoding="utf-8"?>
<!-- Generator: Adobe Illustrator 23.1.0, SVG Export Plug-In . SVG Version: 6.00 Build 0)  -->
<svg version="1.1" id="Слой_1" xmlns="http://www.w3.org/2000/svg" xmlns:xlink="http://www.w3.org/1999/xlink" x="0px" y="0px"
	 viewBox="0 0 70 100" style="enable-background:new 0 0 70 100;" xml:space="preserve">
<style type="text/css">
	.st0{fill:#FF0000;}
	.st1{fill:none;stroke:#FFFFFF;stroke-width:0.5;stroke-miterlimit:10;}
	.st2{fill:none;stroke:#FFFFFF;stroke-miterlimit:10;}
	.st3{fill:none;stroke:#FFFFFF;stroke-width:5;stroke-miterlimit:10;}
	.st4{display:none;}
	.st5{display:inline;}
	.st6{fill:#3C9E45;}
	.st7{fill:#DB3A3A;}
</style>
<rect x="0.1" class="st0" width="69.9" height="100"/>
<line class="st1" x1="66.8" y1="95.3" x2="46.4" y2="66.2"/>
<line class="st1" x1="22.8" y1="97.2" x2="2.5" y2="68.1"/>
<line class="st2" x1="9.8" y1="4.2" x2="57.8" y2="72.9"/>
<line class="st3" x1="3.4" y1="4.8" x2="58.5" y2="83.5"/>
<g>
	<g>
		<path d="M10.4,94c0.1-2.3,0.3-7.1-2.9-7.4c-1.6-0.1-2.9,1-3.5,2.4c-0.7,1.5-0.9,3.3-0.9,4.9s0.1,3.3,0,5C3,99.5,3.7,100,4.2,100
			c0.7,0,1.1-0.5,1.1-1.1c0.1-1.2,0-2.5,0-3.7c0-0.7,0-1.5,0.1-2.2c0.1-0.8,0.1-1.2,0.3-1.9c0.2-0.7,0.3-0.9,0.6-1.5
			c0,0,0.1-0.2,0,0l0.1-0.1c0.1-0.1,0.2-0.2,0.3-0.3c-0.3,0,0-0.2,0.1-0.2c0.1,0,0.1-0.1,0.2-0.1c-0.2,0.1,0.1,0,0.1,0
			c0.1,0,0.1,0,0.2,0c0,0-0.2,0.1,0,0c0,0,0.1,0,0.2,0c-0.4,0-0.1,0-0.1,0h0.1c0,0-0.1,0-0.1-0.1l0.1,0.1C7.3,88.7,7.6,89,7.6,89
			c-0.2-0.2,0,0.1,0.1,0.1c0,0.1,0.2,0.4,0.1,0.2c0.1,0.3,0.2,0.6,0.3,0.9C8,90.4,8,90.6,8,90.8c0-0.2,0,0.3,0,0.4
			c0,0.3,0,0.7,0.1,1c0,0.6,0,1.2,0,1.8C8,95.4,10.3,95.4,10.4,94L10.4,94z"/>
	</g>
</g>
<g class="st4">
	<g class="st5">
		<path d="M27.1,65.4c1.9,0,1.9-3,0-3S25.2,65.4,27.1,65.4L27.1,65.4z"/>
	</g>
</g>
<g class="st4">
	<g class="st5">
		<path d="M31.3,85.9c1.9,0,1.9-3,0-3C29.3,82.9,29.3,85.9,31.3,85.9L31.3,85.9z"/>
	</g>
</g>
<g class="st4">
	<g class="st5">
		<path d="M31.6,83.1c1.9,0,1.9-3,0-3S29.7,83.1,31.6,83.1L31.6,83.1z"/>
	</g>
</g>
<g class="st4">
	<g class="st5">
		<path d="M45.3,61.2c1.9,0,1.9-3,0-3C43.3,58.2,43.3,61.2,45.3,61.2L45.3,61.2z"/>
	</g>
</g>
<g class="st4">
	<g class="st5">
		<path d="M33,57c1.9,0,1.9-3,0-3C31,54,31,57,33,57L33,57z"/>
	</g>
</g>
<g class="st4">
	<g class="st5">
		<path d="M35.1,63.1c1.9,0,1.9-3,0-3C33.2,60.1,33.2,63.1,35.1,63.1L35.1,63.1z"/>
	</g>
</g>
<g class="st4">
	<g class="st5">
		<path d="M34.3,64.7c1.9,0,1.9-3,0-3C32.3,61.7,32.3,64.7,34.3,64.7L34.3,64.7z"/>
	</g>
</g>
<rect x="49.3" y="52.3" width="6.3" height="3.6"/>
<ellipse cx="50.5" cy="51.5" rx="1.5" ry="2"/>
<rect x="2.9" y="94.5" width="2.3" height="5.5"/>
<line class="st1" x1="42.4" y1="1" x2="67.4" y2="36.8"/>
<line class="st1" x1="66.8" y1="31.1" x2="46.4" y2="2"/>
<line class="st1" x1="64.7" y1="21.9" x2="52.3" y2="4.1"/>
<ellipse cx="30.9" cy="30.9" rx="0.8" ry="0.7"/>
<rect x="30.7" y="30.3" width="10.1" height="1.3"/>
<ellipse cx="48.4" cy="50" rx="1.6" ry="1.1"/>
<ellipse cx="59.1" cy="42.9" rx="1.2" ry="0.9"/>
<ellipse cx="54.4" cy="43.2" rx="0.8" ry="0.7"/>
<ellipse cx="58" cy="49.7" rx="1.2" ry="3.2"/>
<ellipse cx="55.4" cy="51.3" rx="1.1" ry="1.3"/>
<ellipse cx="58.8" cy="66.1" rx="1.9" ry="2.5"/>
<ellipse cx="65.4" cy="66.3" rx="1.1" ry="0.9"/>
<ellipse cx="50.1" cy="67.5" rx="0.3" ry="1.1"/>
<ellipse cx="51.3" cy="69.5" rx="2.7" ry="3"/>
<ellipse cx="66.5" cy="73.2" rx="0.9" ry="1.3"/>
<ellipse cx="63.5" cy="82.3" rx="0.7" ry="0.3"/>
<ellipse cx="34.8" cy="84.8" rx="0.8" ry="1.1"/>
<ellipse cx="15.6" cy="75.9" rx="0.6" ry="0.5"/>
<ellipse transform="matrix(0.1554 -0.9879 0.9879 0.1554 -65.8869 82.7602)" cx="15.5" cy="79.9" rx="1" ry="0.9"/>
<ellipse cx="32.6" cy="51.7" rx="1.2" ry="0.6"/>
<g>
	<path d="M44.1,12.7C44.1,12.7,44,12.6,44.1,12.7L44.1,12.7z"/>
	<path d="M67.3,73.6c0.2-0.5,0.5-0.7,0.7-1.5c0-2.7,0-2.8-0.1-4.2c-0.1-1.8-0.2-3.6-0.3-5.3c-0.1-1.4-0.6-3.5-1.1-4.8L66.1,55
		c-0.3-1.3-0.8-2.6-0.9-3.9c-0.3-1.4-0.6-2.8-0.8-4.2c-0.1-0.5-0.2-0.9-0.4-1.2c-0.4-2-1.5-4.4-2.3-4.8c-2-1.1-4.2-1.5-6.4-1.5
		c-3.5-0.2-6.1-2.4-8.7-4.3c0-0.8,0-1.6,0-2.5c0.8-1,1.8-1.8,3.1-2l0.3-0.2l1-0.4c2-1.9,2.3-4.6,0.2-6.8c-1.2-1.4-1.7-2.6-1.5-4.3
		c-0.3-1.2-0.2-2.3-1.4-3.5c-1.1-1.3-2.2-2.6-4.2-2.7c-0.4,0-5.8-1.2-7.6,0.4c-1.7,0.8-1.8,2.7-2.7,4.1c-0.1,0.1,0,0.2-0.1,0.3
		c-0.9,1.6-2.7,0.7-3.9,1.3c-1.1,1-0.7,2.2,0,3.4c-0.1,1,1.1,1.3,1.4,2.1c0.3,0.2,0.6,0.4,0.8,0.5c0.7,0.8,0.9,1.8,0.9,2.9
		c0,1.3,0.1,2.7,0.2,4c-0.2,1.6,0.4,2.4,1.1,3.4c0.3,1.1,0.3,1,0.5,1.6c-1,1.8-2.5,1.6-4.4,1.8c-1.3,0.1-4.4,0.9-5.1,1.5
		c-0.2,0.1-0.8,1-1.3,1.8c-0.1,0.1-0.2,0.2-0.3,0.4c-1.6,1-3.7,9.1-4.1,10.4c-0.9,3.3-1.2,6.7-3,9.8c-0.2,1.7-2.1,2.5-2.2,4.3
		c0,0.3,0,0.6,0,0.9c-0.2,0.5-0.5,1-0.8,1.5c-0.3,0.6-0.6,1.1-0.8,1.8c-0.8,1.7-2,4-2.2,4.6c-0.9,1.6-0.5,4-2.9,4.8
		c-0.5,0.2-1.3,2.9-1.3,4C6.1,84.4,6,84.6,6,84.8c-1.2,0-1.6,0.7-1.7,1.7C4.1,86.7,4,86.9,3.8,87c-0.5,0.1-0.8,0.4-0.9,0.9
		C2.6,88,2.3,88.2,2,88.3c-0.8,2.4-0.6,4.9,0.8,7c0.6-0.1,0.3-0.3,0.5-0.5c0-1,0-2,0-3c0.6-0.8,1.2-1.3,1.9,0l-0.9,3.1
		c0.1,0.2,0.2,0.4,0.9,0.3c0.6-0.4,0.5-0.6,0.8-0.8c0.3-0.6,0.6-1.1,0.9-1.7c-0.2-0.9,0.9-1.3,0.8-2.1c0.5-0.3,0.5-1.2,1.2-1.4
		c0-0.4,0.1-0.8,0.1-1.3c0.4,0,0.7-0.2,0.9-0.6c0.3,0.3,0.6,0.6,0.9,0.6c2.3-1,1.7-1.3,2.2-2.6c1-2.7,3.8-4.2,4.9-6.8
		c0.7-0.4,1.2-1.1,1.6-1.8c0.6-0.2,0.8-0.6,1-1.1c0.7-0.8,1.3-1.6,2-2.4c0,0.9,0,1.8-0.2,2.8c-0.7,5.4-1.3,10.9-2,16.3v1.3
		c0,1,0,2,0,3c-0.6,1.1-0.4,2.3-0.4,3.5c0.4,0,0.9,0,1.3,0c0.4,0,0.9,0,1.3,0c0.1,0,0.3,0,0.4,0c0.4,0,0.9,0,1.3,0
		c1.3,0,2.6,0,3.9,0c4.9,0,9.8,0,14.7,0c2.6,0,5.2,0,7.8,0c1.3,0,2.6,0,3.9,0c0.6,0,1.2,0,1.7,0c0.3,0,0.6,0,0.9,0
		c0.7,0,1.4,0,2.2,0c0.4,0,0.9,0,1.3,0c0.4,0,0.9,0,1.3,0H65c-0.1-0.4-0.2-0.8-0.2-1.2c-0.2-0.1-0.3-0.4-0.3-0.9
		c-0.1-2.1-0.9-4-1.6-6c0-1.4,0.2-6.5,0.3-7.1c0.2-1,0.7-1.9,1.2-2.7c0.1-0.1,0.6-1.3,0.6-1.1c0.1-0.2,0.1-0.5,0.2-0.7
		c0.2-0.7,0.4-1.4,0.6-2.1c0,0,0,0,0,0c0,0,0,0,0,0c0,0,0,0,0,0c0.2-0.8,0.4-1.6,0.7-2.3c0.2-0.7,0.5-1.5,0.8-2.2"/>
</g>
<path class="st6" d="M52.8,50c0-0.1-0.1-0.2-0.1-0.3c0,0,0,0,0-0.1c0,0,0,0,0,0c-0.1,0-0.2,0-0.3,0c-0.1,0-0.1,0-0.2,0
	c-0.1,0-0.1,0-0.2-0.1c-0.1,0-0.1-0.1-0.2-0.1c-0.1,0-0.1-0.1-0.2-0.1c-0.1,0-0.1-0.1-0.2-0.1c-0.1,0-0.1-0.1-0.2-0.1
	c-0.1,0-0.2-0.1-0.3-0.1c-0.1,0-0.3,0-0.4,0.1c-0.1,0.1-0.3,0.1-0.4,0.2l0,0c0,0,0,0,0,0c0.4-0.1,0.8,0.1,1.1,0.3
	c0.1,0.1,0.2,0.2,0.2,0.3c0,0.2,0,0.5,0,0.7c-0.1,0.7-0.2,1.5-0.2,2.2l0,0.2l0,0.1c0,0,0,0,0,0c0,0,0.1,0,0.1,0c0,0,0,0,0.1,0
	c0-0.3,0-0.7,0.1-1c0-0.1,0-0.3,0.1-0.4c0,0,0,0,0,0l0-0.2c0-0.4,0.1-0.8,0.1-1.1c0-0.1,0.1-0.2,0.1-0.3c0-0.1,0.1-0.1,0.1-0.2
	c-0.1,0-0.1,0-0.2,0c0,0,0,0,0,0C52.1,49.9,52.4,49.9,52.8,50C52.8,50.1,52.8,50.1,52.8,50C52.8,50.1,52.8,50,52.8,50z"/>
<path class="st7" d="M54.2,47.7c0-0.1-0.1-0.1-0.1-0.2c-0.1-0.1-0.2-0.2-0.2-0.3c0,0,0-0.1-0.1-0.1c0-0.2-0.1-0.4-0.1-0.5
	c0,0,0-0.1,0-0.1c-0.1-0.1-0.2-0.2-0.3-0.2c-0.2,0-0.4,0-0.6-0.1c-0.2,0-0.4-0.1-0.5-0.1C52,46,51.8,46,51.6,45.9
	c-0.1,0-0.1,0-0.2,0c-0.1,0-0.1,0-0.2,0.1c-0.2,0.1-0.2,0.3-0.3,0.4c-0.1,0.2,0,0.4,0.1,0.6c0.1,0.1,0.2,0.2,0.4,0.3
	c0.1,0.1,0.2,0.1,0.3,0.2c0.1,0,0.1,0.1,0.1,0.2c0.1,0.2,0.2,0.4,0.2,0.6c0.1,0.3,0.1,0.6,0.2,0.8c0,0,0,0,0,0
	c0-0.1-0.1-0.2-0.1-0.3c-0.1-0.3-0.3-0.5-0.5-0.6c-0.1,0-0.1-0.1-0.2-0.2c0,0,0,0,0-0.1c0-0.2-0.1-0.4-0.1-0.5
	c0-0.2-0.1-0.3-0.2-0.4C51,47,51,47,50.9,46.9c-0.1-0.1-0.1-0.2-0.1-0.3c0,0,0-0.1,0-0.1c0,0-0.1,0.1-0.1,0.1c0,0.1-0.1,0.3-0.1,0.4
	c-0.1,0.5-0.1,1,0,1.4c0,0.2,0.1,0.4,0.2,0.6c0,0,0,0.1,0,0.1c0.1,0,0.2,0.1,0.3,0.1c0,0,0.1,0,0.1,0c0,0,0.1,0,0.1,0
	c0.1,0,0.1,0,0.2,0.1c0.1,0.1,0.3,0.1,0.4,0.2c0.1,0,0.1,0,0.2,0.1c0.1,0,0.1,0,0.2,0c0.1,0,0.1,0,0.2,0c0.1,0,0.1,0,0.2,0
	c0.2-0.1,0.4-0.3,0.5-0.6c0.1-0.2,0.2-0.4,0.3-0.7c0.1-0.1,0.1-0.3,0.2-0.4c0.1-0.1,0.2-0.2,0.3-0.2c0.1,0,0.1,0,0.2,0c0,0,0,0,0,0
	C54.3,47.8,54.2,47.7,54.2,47.7z M52.5,46.3C52.5,46.3,52.5,46.3,52.5,46.3c0.2,0,0.3,0.1,0.5,0.2c0,0,0,0,0,0.1c0,0,0,0.1,0,0.1
	c0,0-0.1,0-0.1,0c-0.2,0-0.3-0.1-0.5-0.1c0,0-0.1,0-0.1,0c0,0,0,0,0,0c0.1,0.1,0.1,0.2,0.2,0.2c0.1,0,0.1,0,0.2,0.1c0,0,0,0,0,0
	c0,0,0,0,0,0c0,0,0,0,0,0c-0.2,0-0.3-0.1-0.5-0.2c0,0,0-0.1,0-0.1c0,0,0-0.1,0.1-0.1c0,0,0.1,0,0.1,0c0.2,0,0.3,0.1,0.5,0.1
	c0,0,0,0,0.1,0c0,0,0,0,0,0C52.8,46.5,52.6,46.4,52.5,46.3z M54.1,47.7c-0.1,0-0.1,0-0.2,0c-0.2,0-0.4,0-0.6,0
	c-0.2,0-0.5,0.2-0.7,0.3c-0.1,0.1-0.3,0.2-0.4,0.3c0,0-0.1,0.1-0.1,0.1c0,0,0,0,0,0c0,0,0,0,0,0c0.1-0.2,0.2-0.4,0.3-0.5
	c0.1-0.1,0.1-0.1,0-0.2c0,0,0,0,0,0c-0.1,0-0.2-0.1-0.3-0.1c-0.1,0-0.1,0-0.2-0.1c-0.2-0.2-0.4-0.3-0.6-0.4
	c-0.1-0.1-0.2-0.2-0.3-0.3c-0.1-0.1-0.1-0.2,0-0.2c0.1-0.2,0.2-0.2,0.4-0.3c0,0,0,0,0,0c-0.1,0.1-0.1,0.1-0.2,0.2
	c-0.1,0.1-0.1,0.2,0,0.3c0.1,0.1,0.2,0.2,0.3,0.2c0.2,0.1,0.5,0.2,0.8,0.3c0,0,0,0,0,0c0,0,0,0-0.1,0c-0.2-0.1-0.3-0.2-0.4-0.3
	c-0.1-0.1-0.2-0.2-0.2-0.4c0-0.1,0-0.2,0.1-0.3c0.1,0,0.1,0,0.2-0.1c0,0,0.1,0,0.1,0c0,0,0,0,0,0c-0.1,0-0.2,0.1-0.2,0.1
	c-0.1,0-0.1,0.1-0.1,0.2c0,0.1,0.1,0.1,0.1,0.2c0.1,0.1,0.1,0.1,0.3,0.1c0,0,0-0.1,0-0.1c0-0.1,0.1-0.3,0.2-0.3c0,0,0,0-0.1,0
	c-0.1,0-0.1,0.1-0.1,0.1c0,0.1,0,0.1,0.1,0.2c0.1,0.2,0.3,0.3,0.5,0.2c0.1,0,0.2-0.1,0.3-0.2c0,0,0.1-0.1,0.1-0.1c0,0,0,0,0,0
	c0,0.1-0.1,0.1-0.1,0.2c0,0-0.1,0.1-0.1,0.1c-0.1,0-0.1,0.1-0.2,0.1c-0.1,0-0.2,0-0.3,0c-0.1,0-0.1-0.1-0.2-0.1
	c-0.1,0-0.1-0.1-0.2-0.1c0,0,0,0,0,0c0,0,0,0,0,0c0.1,0.1,0.2,0.1,0.3,0.2c0.2,0.1,0.4,0.2,0.6,0.1c0.2,0,0.3-0.1,0.4-0.3
	c0,0,0-0.1,0-0.1c0,0,0,0,0,0c0,0.1,0,0.2,0,0.3c0,0.1,0,0.1-0.1,0.2c-0.1,0.1-0.1,0.1-0.2,0.1c-0.1,0-0.3,0-0.4,0c0,0,0,0-0.1,0
	c0.1,0.1,0.1,0.3,0.2,0.4c0,0,0,0,0,0c0.1,0,0.1-0.1,0.2-0.1c0.2-0.1,0.3-0.2,0.5-0.3c0.1-0.1,0.2-0.2,0.1-0.3
	c0-0.1-0.1-0.2-0.1-0.3c0,0,0-0.1,0-0.1c0,0,0,0,0,0c0,0,0,0,0,0c0.1,0.1,0.1,0.2,0.2,0.3c0,0.1,0.1,0.1,0.1,0.2c0,0,0,0,0,0.1
	c0,0.1,0,0.1,0,0.1c0.1,0,0.2,0.1,0.2,0.1C54,47.5,54.1,47.6,54.1,47.7C54.2,47.7,54.2,47.7,54.1,47.7
	C54.2,47.7,54.1,47.7,54.1,47.7z"/>
</svg>
