<?xml version="1.0" encoding="utf-8"?>
<!-- Generator: Adobe Illustrator 23.1.0, SVG Export Plug-In . SVG Version: 6.00 Build 0)  -->
<svg version="1.1" id="Слой_1" xmlns="http://www.w3.org/2000/svg" xmlns:xlink="http://www.w3.org/1999/xlink" x="0px" y="0px"
	 viewBox="0 0 70 100" style="enable-background:new 0 0 70 100;" xml:space="preserve">
<style type="text/css">
	.st0{fill:#FBB03B;}
	.st1{fill:#F7931E;}
	.st2{fill:#FFFFFF;}
</style>
<rect class="st0" width="70" height="100"/>
<g>
	<path class="st1" d="M7.9,67.4c-0.9,0-1.6-0.3-1.9-1.2c-0.4-0.9-0.4-1.8,0.3-2.5c2.1-2.1,4.2-4.3,6.3-6.4c2.3-2.3,4.6-4.6,6.9-6.9
		c2.3-2.3,4.5-4.5,6.8-6.8s4.6-4.6,7-7c2.2-2.2,4.5-4.5,6.7-6.7c1.1-1.1,2.2-2.2,3.3-3.3c0.3-0.3,0.6-0.4,0.9-0.1
		c0.8,0.8,1.5,1.5,2.3,2.3c0.3,0.3,0.3,0.5,0,0.9c-3.6,3.6-7.2,7.2-10.7,10.7c-3.2,3.2-6.4,6.4-9.6,9.6c-3.2,3.2-6.4,6.4-9.6,9.6
		c-2.3,2.3-4.7,4.7-7,7C9.1,67.1,8.5,67.4,7.9,67.4z"/>
	<path class="st1" d="M51.2,16.3c0.4,0,0.7,0.2,1,0.5c1.4,1.4,2.8,2.8,4.1,4.1c0.6,0.6,0.7,1.3,0,1.9c-1.9,1.9-3.8,3.8-5.7,5.7
		c-0.7,0.7-1.3,0.7-2,0c-1.4-1.4-2.7-2.7-4.1-4.1c-0.7-0.7-0.7-1.3,0-2c1.9-1.9,3.8-3.8,5.7-5.7C50.5,16.5,50.8,16.2,51.2,16.3z"/>
	<path class="st1" d="M25,9.1c0.4-0.2,0.8-0.2,1.2-0.2c2.3-0.1,4.6,0,6.8,0.6c5.1,1.4,9.7,3.9,13.9,7.1c0.4,0.3,0.4,0.5,0.1,0.8
		c-0.8,0.7-1.5,1.5-2.2,2.2c-0.3,0.3-0.6,0.3-0.9,0.1c-1.3-1.1-2.6-2.1-3.9-3c-4-2.8-8.2-5.2-12.8-6.8c-0.7-0.2-1.4-0.3-2.1-0.6
		C25,9.2,25,9.2,25,9.1z"/>
	<path class="st1" d="M63.9,48.1c-0.2-0.1-0.2-0.3-0.3-0.5c-0.8-3.3-2.2-6.3-3.9-9.2c-1.7-3-3.7-5.9-5.9-8.6c-0.8-1-0.8-1,0.1-1.9
		c0.6-0.6,1.2-1.2,1.8-1.8c0.3-0.3,0.5-0.3,0.7,0c3.6,4.8,6.5,10,7.5,16c0.3,1.8,0.4,3.7,0.1,5.5C64,47.7,63.9,47.9,63.9,48.1
		C64,48.1,64,48.1,63.9,48.1z"/>
</g>
<polygon class="st2" points="63.5,89.3 65.3,88.7 67.2,88.2 66.7,90 66.3,91.9 64.9,90.6 "/>
<polygon class="st2" points="59,96.5 61.1,94.7 63.2,92.8 63.7,95.6 64.3,98.3 61.6,97.4 "/>
<polygon class="st2" points="62,91.9 58.1,88.2 54.2,84.5 59.3,83 64.5,81.4 63.3,86.7 "/>
<polygon class="st2" points="55.7,92.8 57.2,94 58.8,95.1 57,95.9 55.2,96.7 55.5,94.7 "/>
<path d="M43.7,21.3c0.1,0.1,0.1,0.2,0.2,0.2c0.4,0,0.5,0.3,0.5,0.6c-0.1,0.7,0,1.4-0.1,2.1s-0.3,1.5-0.7,2.1l0,0
	c-0.9,0.5-0.7,1.4-1,2.2c-0.2,0.6-0.2,1.2-0.2,1.9c0,0.2,0,0.4,0.2,0.4c1,0.2,1.3,1,1.8,1.7c0.5,0.7,0.9,1.4,1.2,2.2
	c0.1,0.2,0.2,0.3,0.3,0.4c1.3,0.8,2.6,1.5,4,2.2c1.5,0.8,3,1.7,4.5,2.5c0.2,0.1,0.3,0.2,0.4,0.4c1.6,1.5,2.6,3.4,3.4,5.4
	c1.3,3.3,2.4,6.6,3.3,10c0.9,3.3,1.7,6.6,2.5,9.9c0.6,2.3,1,4.6,1.3,6.9c0.2,1.8,0.5,3.7,0.5,5.5c0,0.9-0.1,1.8-0.5,2.7
	c-0.2,0.5-0.4,1.1-0.6,1.6c-0.1,0.2,0,0.3,0.1,0.5c0.6,0.7,0.6,1.6,0,2.4c-0.2,0.2-0.3,0.5-0.4,0.9c-0.1,1.1-0.3,2.2-0.7,3.2
	c-0.1,0.3,0.1,0.7-0.1,1c0,0.1,0,0.6,0,0.8c0,0.3-0.1,0.6-0.1,0.9c0,0.4-0.1,0.9-0.3,1.3c-0.2,0.7-0.4,1.3-0.6,2
	c-0.2,0.9-0.8,1.6-1.5,2.1c-0.9,0.7-1.9,1.1-2.9,1.6c-0.2,0.1-0.5,0.2-0.7,0.4c-0.3,0.1-0.6,0.2-0.8-0.1c-0.2-0.2-0.2-0.5-0.1-0.8
	c0.3-0.6,0.6-1.2,1.1-1.6c1-1,1.6-2.1,1.7-3.5c0-0.1,0.1-0.3,0.1-0.4c0.1-0.2,0-0.4-0.1-0.6s-0.3-0.5-0.5-0.5s-0.3,0.3-0.4,0.5
	c-0.4,0.7-0.6,1.5-1.2,2.2c-0.4,0.5-0.7,0.6-1.1,0.4c-0.4-0.2-0.6-0.6-0.4-1.2c0.6-2,1-4,2.2-5.7c0.1-0.2,0.1-0.3,0.1-0.5
	c0-0.5,0-0.9,0.1-1.4c0-0.2,0-0.4-0.2-0.5c-1.4-0.5-2.1-1.5-2.2-2.9c-0.1-0.7-0.2-1.4-0.3-2.1s0-1.3,0.5-1.8c0.3-0.3,0.3-0.6,0.2-1
	c-0.4-0.7-0.6-1.5-0.9-2.2c-0.3-0.7-0.4-1.5-0.5-2.2c-0.4-1.5-0.6-3-1.1-4.4c-0.4-1-0.8-2-0.9-3.1c0-0.1,0-0.2,0-0.2
	c0.4-1.6-0.3-3.1-0.7-4.6c0.1-0.6-0.1-1.1-0.1-1.7c0-0.3-0.1-0.5-0.2-0.7c0.2,0.9,0,1.9,0.1,2.8c0.2,1.1,0,2.3-0.1,3.5
	c-0.1,1.7-0.2,3.5,0.1,5.2c0.1,1,0.1,2,0.3,2.9c0.3,1.2,0.4,2.4,0.1,3.6c-0.1,0.2-0.1,0.5-0.2,0.7c-0.5,1.1-0.6,2.2-0.5,3.3
	c0.1,2.4-0.2,4.7-0.6,7c-0.1,1.1-0.5,2.2-0.5,3.3c0,0.5,0.2,1.1,0,1.6c-0.4,1-0.1,2.1-0.2,3.1c0,1.4-0.1,3-0.2,4.3
	c-1.1,0-32.3,0-32,0c0-1.3,0.2-3.2,0.3-4.5c0.1-1.3,0.2-2.5,0.5-3.8c0.2-0.9,0.3-1.7,0.4-2.6c0-0.3,0.1-0.6,0.2-0.9s0.1-0.5-0.3-0.7
	c-1-0.4-1.8-0.9-2.7-1.5c-0.2-0.1-0.3-0.3-0.2-0.5c0.1-0.2,0.1-0.4,0.2-0.6c0.6-1.4,1-2.8,1.3-4.3c0.2-1.3,0.4-2.7,0.6-4.1
	c0.1-1.3,0.4-2.5,0.7-3.8c0.3-1.4,0.5-2.9,0.6-4.3c0-0.3,0.3-0.5,0.3-0.8c0.1-0.8,0.2-1.6,0.2-2.4c0.1-2,0.1-4.1,0.2-6.1
	c0.1-0.7-0.2-1.5-0.3-2.2c-0.2-1.8-0.4-3.7-0.5-5.5c0-0.7-0.2-1.4-0.8-1.8c-0.2-0.2-0.4-0.4-0.7-0.6c-0.1-0.1-0.3-0.2-0.4-0.2
	c-1.8-0.4-3.7-0.8-5.5-1.3c-2.5-0.7-4.8-1.7-6.8-3.4c-0.8-0.7-1.5-1.5-2.2-2.2c-0.9-0.9-0.9-2-0.7-3.1c0.1-1,0.7-1.8,1.3-2.6
	c0.7-0.8,1.2-1.8,1.9-2.6c0.8-1.1,1.7-2.1,2.5-3.2c0.6-0.8,1.4-1.2,2.4-1.6c0.9-0.3,1.8-0.7,2.6-1.2c0.2-0.1,0.3-0.2,0.5-0.3
	c0.7-1.1,1.8-1.5,3-1.6c0.3,0,0.5-0.1,0.7-0.3c0.4-0.3,0.8-0.6,1.2-0.8c1-0.7,1.9-1.5,2.8-2.2c0.2-0.2,0.3-0.4,0.4-0.6
	c0.2-0.9,0.5-1.9,1-2.7c0.7-1.2,1.7-2.2,3.1-2.6c0.3-0.1,0.5,0,0.7,0.1c0.6,0.4,1.3,0.5,1.9,1c0.2,0.2,0.5,0.1,0.7-0.1
	c0.1-0.1,0-0.6,0.4-0.4c0-0.1,0-0.1,0-0.2c0.1-0.7,0.1-1.3,0.2-2c0.1-1,0.6-1.8,1.2-2.5c0.6-0.8,1.4-1.3,2.1-2
	c1.7-1.7,5.5-1.7,7.5-0.5c0.3,0.2,0.5,0.3,0.6,0.6c0.1,0.2,0.4,0.3,0.7,0.5c0.9,0.7,1.6,1.6,2.1,2.7c0.4,0.9,0.5,1.8,0.5,2.8
	c0,0.6,0.1,1.2,0.1,1.9c0.3,0,0.7,0.1,0.8,0.1c0.6,0.1,0.3,0.5,0.3,0.8s-0.2,0.5-0.5,0.4c-0.6-0.1-0.5,0-1.2,0.1 M29.3,23.6
	c-0.3,0.2-0.4,0.4-0.5,0.5c-0.5,0.8-1.1,1.4-1.9,1.9c-0.5,0.3-0.9,0.7-1.2,1.1c-0.3,0.4-0.6,0.9-1.1,1.2c-0.6,0.4-1,0.9-1.5,1.5
	c-0.6,0.8-1.4,1.3-2.4,1.4c-0.1,0-0.2,0-0.3,0.1c-0.3,0-0.4,0.2-0.5,0.4c-0.4,0.9-0.8,1.7-1.5,2.5c-0.2,0.3-0.5,0.5-0.6,0.9
	c0.7-0.1,1.3-0.3,1.9-0.6c0.5-0.2,1-0.4,1.5-0.4c0.4,0,0.9,0,1.3-0.1c0.5-0.1,0.9-0.1,1.4,0c0.3,0.1,0.6,0.1,0.9,0
	c0.7-0.1,1.3,0,1.9,0.3c0.5,0.3,1.6,0,1.8-0.6c0.1-0.3,0.3-0.5,0.6-0.8c0.6-0.7,1.4-1.4,2.1-2c0.3-0.3,0.3-0.6,0.2-0.9
	c-0.4-0.8-0.7-1.7-0.9-2.6c-0.1-0.5-0.2-1-0.7-1.3c-0.2-0.1-0.2-0.3-0.3-0.5C29.5,25,29.2,24.3,29.3,23.6z"/>
<polygon class="st2" points="5.6,6.3 4.1,5.1 2.6,3.9 4.4,3.2 6.2,2.5 5.9,4.4 "/>
<polygon class="st2" points="12.9,9 10.2,8.3 7.5,7.6 9.5,5.6 11.4,3.6 12.2,6.3 "/>
<polygon class="st2" points="10.7,8.9 9.9,14.3 9,19.6 4.8,16.2 0.6,12.8 5.7,10.8 "/>
<polygon class="st2" points="11.7,13.8 11.7,11.9 11.8,10 13.5,11 15.1,12 13.4,12.9 "/>
<polygon class="st2" points="2.1,11.1 2.2,8.4 2.3,5.8 4.5,7.2 6.7,8.6 4.4,9.8 "/>
<rect y="99.6" width="70" height="0.4"/>
</svg>
