<?xml version="1.0" encoding="utf-8"?>
<!-- Generator: Adobe Illustrator 23.1.0, SVG Export Plug-In . SVG Version: 6.00 Build 0)  -->
<svg version="1.1" id="Слой_1" xmlns="http://www.w3.org/2000/svg" xmlns:xlink="http://www.w3.org/1999/xlink" x="0px" y="0px"
	 viewBox="0 0 70 100" style="enable-background:new 0 0 70 100;" xml:space="preserve">
<style type="text/css">
	.st0{fill:#00FFFF;}
	.st1{fill:#29ABE2;}
	.st2{fill:#FFFFFF;}
</style>
<rect class="st0" width="70" height="100"/>
<g>
	<rect x="2.6" y="17.8" class="st1" width="39.4" height="8.5"/>
	<rect x="18.1" y="2.4" class="st1" width="8.5" height="39.4"/>
</g>
<g>
	<path class="st2" d="M43.7,83.9c0.6,1.6,1.2,3.2,1.8,4.8c-1.6,0.7-3.1,1.3-4.6,2c-1.4,0.6-2.8,1.2-4.2,1.9
		c-0.4,0.2-0.6,0.2-0.9-0.2c-0.1-0.2-0.3-0.3-0.4-0.4c-0.6-1.2-1.6-1.9-2.8-2.5c-0.4-0.2-0.8-0.6-0.9-1c-1.1-2.4-2.2-4.8-3.2-7.2
		c-0.6-1.4-1-2.9-1.5-4.5c3.9-1.8,7.8-3.6,11.7-5.4c0.7,1.6,1.3,3.1,2,4.8c-0.3,0.2-0.6,0.3-0.8,0.4c-0.5,0.2-0.6,0.6-0.4,1
		c0.5,1,0.8,2.1,1.1,3.2c0.3,1.2,1,2.2,1.5,3.3c0.1,0.1,0.4,0.2,0.6,0.2C43.1,84.3,43.4,84.1,43.7,83.9z"/>
	<path class="st2" d="M25.8,92.8c0.6,1.2,1.2,2.4,1.8,3.7c-1.5,0.6-2.9,1.3-4.4,2c-0.3-0.7-0.5-1.3-0.8-1.9c-1.9-5-3.8-10-5.6-15
		c-0.3-0.9,0.5-0.6,0.8-1c0.4,1.4,0.8,2.6,1.2,3.9c0.8,2.4,1.5,4.9,2.3,7.3c0.1,0.3,0.2,0.6,0.3,0.8c0.5,1.1,0.5,1.1,1.7,0.9
		C24,93.3,24.9,93,25.8,92.8z"/>
	<path class="st2" d="M53,50.3c0.1-0.5,0-0.8-0.2-1.1v-8.6h-3.9c-0.6-1.3-1.3-2.6-2.3-3.8c0.5,1.3,1,2.5,1.6,3.8h-1.3
		c0.1-0.4,0.2-0.7,0.2-1.1c0-2-1.4-3.7-3.2-4.2c0.1-0.2,0.1-0.4,0.1-0.5c0-0.8-0.6-1.4-1.4-1.4c-0.8,0-1.4,0.6-1.4,1.4
		c0,0,0,0,0,0.1c-0.7-0.3-1.5-0.5-2.4-0.7c-0.2-0.7-1.7-1.3-3.5-1.3c-2,0-3.6,0.7-3.6,1.5c0,0.2,0.1,0.3,0.2,0.5
		c-1.9,0.8-3.2,2.1-3.2,3.6c0,0.8,0.4,1.6,1,2.2h-1.9v41.1h25v-30c0.1,0,0.2,0,0.2,0c0-0.3,0.1-0.5,0.1-0.8
		C53.1,50.8,53,50.5,53,50.3z"/>
	<path class="st2" d="M43.5,83.6c-1.1,0.7-1.1,0.7-1.6-0.5c-0.3-0.7-0.6-1.3-0.9-2c-0.2-0.4-0.3-0.9-0.5-1.3c-0.2-0.7-0.4-1.3-0.6-2
		c-0.3-0.8-0.3-0.9,0.5-1.2c0.1,0,0.2-0.1,0.4-0.1C41.7,78.9,42.6,81.2,43.5,83.6z"/>
	<path class="st2" d="M29.4,90.7c-1.1,0.6-2.2,1.1-3.4,1.7c-0.4,0.2-0.6-0.2-0.6-0.5c1.3-0.5,2.6-0.9,3.9-1.4
		C29.4,90.5,29.4,90.6,29.4,90.7z"/>
	<path d="M29.4,48.6c1.6-1.2,3.5-0.9,4.3,0.6c0.4,0.8,0.9,1.6,1.1,2.6c0.3,1.8,0.7,3.6,0.6,5.4c0,0.6-0.1,1.2-0.3,1.8
		c-0.5,1.5-2.2,1.9-3.4,0.8c-0.9-0.9-1.4-2-1.7-3.1c-0.4-1.5-0.5-3.1-0.9-4.6C28.8,50.9,29.4,49.8,29.4,48.6L29.4,48.6z"/>
	<path d="M29.4,48.6c-0.2,0.3-0.3,0.7-0.5,1.1c-0.2-1.1-0.4-2.1,0.4-3c0.6-0.7,1.8-1,2.6-0.6c1.2,0.6,1.8,1.8,2.2,3
		c-0.7-1.1-1.7-1.7-3.1-1.5C30.3,47.7,29.7,48,29.4,48.6L29.4,48.6z"/>
	<path d="M58,100c-0.1-1.9-0.1-3.8-0.2-5.7c-0.1-2.1-0.4-4.1-0.6-6.2c0.6,0,1.1,0.2,1.7,0.1c0.8,0,0.9-0.3,0.9-1.1
		c0-0.5,0-1,0.2-1.4c1.9-4.8,3-9.8,3.7-14.9c0-0.2,0-0.3,0-0.5c-0.3-2.4-0.6-4.9-1-7.3c-0.6-3.7-2-7.2-3.1-10.8
		c-0.2-0.5-0.2-1-0.2-1.5c0-1.7-0.1-3.4-0.7-5c-0.3-0.9-0.8-1.8-1.2-2.7c-0.3-0.6-0.8-1-1.1-1.6c-0.7-1.4-1.8-2.2-3.2-2.8
		c-1.5-0.6-3-1.1-4.4-1.7c-1.6-0.7-3.3-1.2-4.1-2.9c-0.2-0.3-0.6-0.5-0.9-0.8c-0.1,0-0.1,0.1-0.2,0.1c0.1,0.6,0,1.2,0.2,1.7
		c0.6,1.7,0.4,3.4,0.4,5.2c0,1.5,0,3.1,0.2,4.6c0.5,3.9,0.6,7.8,1.6,11.6c0.9,3.2,1.7,6.4,2.7,9.5c1.1,3.4,2.3,6.7,3,10.3
		c0.1,0.8,0,1.2-0.6,1.6c-2.1,1.5-4.5,2.2-7,2.7c-0.1,0-0.4-0.2-0.5-0.4c-0.7-1.7-1.4-3.4-2.1-5.2c-0.2-0.6-0.3-1.3-0.3-1.9
		c0-2.4,0.3-4.9,0.2-7.3c-0.2-3.7-0.5-7.3-0.8-11c-0.3-3-0.5-6-1.8-8.9c-1-2.4-2-4.8-3.7-6.9c-0.9-1.1-1.6-2.4-2.5-3.6
		c-0.4-0.7-0.7-1.3-0.2-2.1c0,0,0-0.1-0.1-0.1c-0.5,0.3-0.7,0.5-0.9,1.3c-1,3.3-0.7,6.7-0.4,10.1c0,0.2,0.3,0.5,0.5,0.6
		c0.8,0.1,1.4,0.6,1.9,1.2c0.9,1.2,1.7,2.4,1.7,4c0,1.1,0.4,2.3,0.6,3.5c0.3,1.8,0.4,3.6-0.1,5.3c-0.1,0.3-0.1,0.7-0.1,1
		c0.1,0.5-0.1,0.6-0.6,0.7c-1.1,0-2.2,0.1-3.2,0.2c-0.2,0-0.5,0-0.5-0.1c-0.1-0.2-0.1-0.4-0.1-0.7c0-0.1,0.2-0.2,0.3-0.3
		c-2-2.5-2.1-5.6-2.9-8.5c-0.1-0.3-0.1-0.6-0.1-0.9c-0.5-1.9,0.1-4,1.7-5c0.4-0.3,0.5-0.5,0.4-1c-0.1-2.2-0.2-4.4-0.2-6.6
		c0-0.8,0.2-1.5,0.3-2.3c-1,0.6-2.1,1.2-3.1,1.7c-1.6,0.8-3.1,1.7-4.7,2.5c-2.5,1.3-4,3.4-5,6c-0.7,1.9-1.1,3.9-1.3,6
		c-0.5,4.9-0.6,9.9-0.4,14.8c0.2,4.1,0.3,8.2,1.2,12.3c0.3,1.3,0.2,1.3-0.9,1.9c-0.1,0-0.2,0.1-0.3,0.2c0.1,0.2,0.1,0.4,0.2,0.5
		c1.4,3.7,2.7,7.3,4.2,10.9c0.9,2.2,2.6,5.6,1.1,7.5C21.4,100,53.1,99.9,58,100z M43.5,83.6c-1.1,0.7-1.1,0.7-1.6-0.5
		c-0.3-0.7-0.6-1.3-0.9-2c-0.2-0.4-0.3-0.9-0.5-1.3c-0.2-0.7-0.4-1.3-0.6-2c-0.3-0.8-0.3-0.9,0.5-1.2c0.1,0,0.2-0.1,0.4-0.1
		C41.7,78.9,42.6,81.2,43.5,83.6z M23.2,98.5c-0.3-0.7-0.5-1.3-0.8-1.9c-1.9-5-3.8-10-5.6-15c-0.3-0.9,0.5-0.6,0.8-1
		c0.4,1.4,0.8,2.6,1.2,3.9c0.8,2.4,1.5,4.9,2.3,7.3c0.1,0.3,0.2,0.6,0.3,0.8c0.5,1.1,0.5,1.1,1.7,0.9c0.9-0.2,1.8-0.5,2.7-0.7
		c0.6,1.2,1.2,2.4,1.8,3.7C26.2,97.1,24.7,97.8,23.2,98.5z M26,92.3c-0.4,0.2-0.6-0.2-0.6-0.5c1.3-0.5,2.6-0.9,3.9-1.4
		c0,0.1,0.1,0.2,0.1,0.2C28.3,91.2,27.2,91.8,26,92.3z M41,90.7c-1.4,0.6-2.8,1.2-4.2,1.9c-0.4,0.2-0.6,0.2-0.9-0.2
		c-0.1-0.2-0.3-0.3-0.4-0.4c-0.6-1.2-1.6-1.9-2.8-2.5c-0.4-0.2-0.8-0.6-0.9-1c-1.1-2.4-2.2-4.8-3.2-7.2c-0.6-1.4-1-2.9-1.5-4.5
		c3.9-1.8,7.8-3.6,11.7-5.4c0.7,1.6,1.3,3.1,2,4.8c-0.3,0.2-0.6,0.3-0.8,0.4c-0.5,0.2-0.6,0.6-0.4,1c0.5,1,0.8,2.1,1.1,3.2
		c0.3,1.2,1,2.2,1.5,3.3c0.1,0.1,0.4,0.2,0.6,0.2c0.3-0.1,0.6-0.3,1-0.4c0.6,1.6,1.2,3.2,1.8,4.8C44,89.4,42.5,90.1,41,90.7z
		 M53.1,51.8c-0.3-0.1-0.6-0.1-0.7-0.2c-0.8-0.6-1.3-1.4-1.6-2.3c-0.2-0.7-0.2-0.7,0.7-0.8c-1.6-4-3.2-7.8-4.8-11.6
		c2.8,3.5,3.8,8,5.6,12.1c0.7,0.1,1,0.6,0.8,1.4c-0.1,0.2,0.1,0.5,0.1,0.7C53.1,51.3,53.1,51.5,53.1,51.8z"/>
	<path d="M48.1,74.5c-1-7.5-2.1-15-3.6-22.4c-0.5-2.3-0.7-4.7-1.3-7c-0.4-1.4-0.9-2.9-1.2-4.3c-0.1-0.5,0-0.9,0.5-1.2
		c0.1,0.2,0.3,0.4,0.4,0.6c0.1-1.1-0.7-1.7-1.5-2.2c0.1-0.2,0.3-0.4,0.3-0.5c0.6-1.4,1.4-2.7,1.6-4.2c0.3-1.7,1-3.2,1.5-4.9
		c0.9,0.2,1.3-0.4,1.5-1c0.4-1.1,0.6-2.3,0.8-3.5c0-0.1,0-0.3-0.1-0.4c-0.6-0.5-0.2-1,0-1.6c0.3-1.3,0.4-2.6,0.2-3.9
		c0-0.1,0-0.1,0-0.2c0,0,0,0,0-0.1c0.1-0.1,0.1-0.2,0.1-0.4c0.1-0.3,0.1-0.7,0.1-1v-0.1v-0.1V16c0.1-0.1,0.1-0.3,0.1-0.4
		c0-0.3,0.1-0.6,0.1-0.8s0-0.3,0.1-0.5c0.1-0.5,0.1-1,0.1-1.5c0-0.1,0-0.2-0.1-0.3c0-0.1,0-0.1-0.1-0.1c0-0.1-0.1-0.1-0.2-0.1
		c-0.2-0.3-0.5-0.5-0.9-0.6c-0.5-0.2-0.9-0.4-1.4-0.6C44.9,11,44.7,11,44.5,11c-0.4-0.1-0.8-0.1-1.2-0.2c-0.3,0-0.5-0.1-0.8-0.1
		c-0.1,0-0.1-0.1-0.2-0.1c-0.1,0-0.2,0-0.2-0.1c-0.1,0-0.1,0-0.2,0c-0.1,0-0.2,0-0.2,0h-0.1c-0.1,0-0.1,0-0.2-0.1h-0.1
		c-0.2,0-0.5-0.1-0.7-0.1s-0.4-0.1-0.6-0.1c-0.3,0-0.7,0-1,0c-0.1,0-0.3,0-0.4,0c0,0-0.1,0-0.2,0c-0.3,0-0.5,0-0.8,0
		c-0.2,0-0.5-0.1-0.7-0.1c-0.5,0-1,0-1.4,0c-0.2,0-0.4,0-0.6,0.1c-0.3,0.1-0.5,0.1-0.8,0.2c-0.6,0.1-1.2,0.3-1.7,0.6
		c-0.6,0.3-1.1,0.7-1.5,1.3c-0.2,0.3-0.2,0.6-0.2,0.9c0,0,0,0.1,0.1,0.1l0,0l0,0l0,0c0,0,0,0,0,0.1c0,0.3,0.2,0.6,0.3,0.9
		c0.1,0.2,0.2,0.4,0.2,0.7c0,0.6-0.1,1.1-0.1,1.7c0,0.2,0,0.5,0,0.7c0,0.1,0,0.2,0.1,0.3c0,0,0,0.1,0.1,0.1c0,0.1,0.1,0.2,0.2,0.2
		v-0.1V18c0,0,0,0.1,0.1,0.1c-0.2,1.3-0.3,2.6-0.1,4c-0.9,0-1.1,0.1-1.1,0.9c0,1.1,0,2.2,0.3,3.3c0.2,1.1,0.8,1.4,1.8,1.1
		c0.5,1.5,0.7,3,0.6,4.6c-0.1,1.1,0.4,2.1,1.1,2.8c0.9,0.9,2,1.7,3.1,2.4c0.7,0.5,1.5,0.9,2.3,1.4c-0.5,0.9-0.9,1.8-1.3,2.7
		c0.2,0.1,0.4,0.1,0.5,0.2c1,0.7,1.5,1.5,1.4,2.8c-0.2,1.3-0.3,2.6-0.2,3.8c0.2,3.2,0.5,6.4,0.9,9.6c0.4,2.8,0.9,5.6,1.3,8.5
		c0.4,3.1,0.8,6.3,1.2,9.4c0,0.3,0.1,0.7,0.3,0.9c0.8,0.8,1.6,1.4,2.5,2.2c0.5-0.9,1.1-1.7,1.5-2.6C48,75.4,48.1,74.9,48.1,74.5z
		 M41.6,10.6L41.6,10.6C41.6,10.5,41.5,10.5,41.6,10.6C41.5,10.5,41.6,10.5,41.6,10.6z M39.2,10.9L39.2,10.9L39.2,10.9L39.2,10.9z
		 M36,11.2L36,11.2C36.1,11.2,36.1,11.2,36,11.2C36.1,11.2,36.1,11.2,36,11.2z"/>
	<path class="st2" d="M20.1,54.3c0-0.4,0-0.8-0.1-1.3c-0.5,0-0.9,0.1-1.4,0.1c0-0.3,0-0.5-0.1-0.8c0-0.4,0-0.4,0.4-0.4
		c0.3,0,0.5,0,0.8,0c0.1,0,0.2,0,0.2-0.2c0-0.3,0-0.7-0.1-1v-0.1c0.4,0,0.7,0,1.1-0.1c0,0.4,0,0.8,0,1.3c0.4-0.1,0.8-0.1,1.2-0.2
		c0,0.3,0,0.7,0,1L22,52.7c-0.3,0.1-0.6,0.1-0.8,0.2c-0.1,0-0.2,0.1-0.1,0.2c0,0.3,0,0.6,0,0.9c0,0.1,0,0.2-0.1,0.2
		C20.7,54.2,20.4,54.3,20.1,54.3z"/>
</g>
<rect y="99.1" width="70" height="0.9"/>
</svg>
