<?xml version="1.0" encoding="utf-8"?>
<!-- Generator: Adobe Illustrator 23.1.0, SVG Export Plug-In . SVG Version: 6.00 Build 0)  -->
<svg version="1.1" id="Слой_1" xmlns="http://www.w3.org/2000/svg" xmlns:xlink="http://www.w3.org/1999/xlink" x="0px" y="0px"
	 viewBox="0 0 50 50" style="enable-background:new 0 0 50 50;" xml:space="preserve">
<style type="text/css">
	.st0{fill:#AF1B1B;}
</style>
<path d="M13.4,10.2c-1,0.2-2,0.3-3,0.7c-0.5,0.2-0.9,0.5-1.3,0.8c-0.3,0.2-0.4,0.6-0.5,0.9c-0.3,0.8-0.4,1.7-0.5,2.6
	C8,16,8,16.9,7.9,17.7c0,0.6-0.1,1.2-0.1,1.8c-0.1,2.8,0,5.7,0,8.5c0,0.8,0.1,1.7,0.1,2.5c0.1,1,0.2,2,0.2,3c0,0.2,0,0.4,0,0.6
	c0.1,0.4,0,0.4-0.3,0.5C6,35,4.2,36.1,2.7,37.1c-0.7,0.5-1.3,0.7-1.9,1.4c-0.3,0.4-0.5,0.9-0.5,1.5c0,0.3,0.2,0.5,0.4,0.6
	c0.4,0.3,0.8,0.4,1.3,0.5c2,0.1,3.9-0.1,5.8-0.6c3.4-0.7,6.7-2,9.9-3.3c1.8-0.8,3.5-1.6,5.2-2.4c1.5-0.6,2.9-1.2,4.4-1.8
	c2.7-1.1,5.4-2.2,8.1-3.3c1.7-0.6,3.3-1.2,5-1.8c1.9-0.7,3.7-1.3,5.6-1.8c1.2-0.4,2-1.1,2.6-2.1c0.6-1,0.9-2,1.1-3.1
	c0-0.2,0-0.4,0.1-0.5c0-0.1,0-0.3,0-0.4c0-0.2,0-0.4,0-0.5c0,0,0-0.1,0-0.1c-0.1-0.4-0.3-0.6-0.8-0.6c-0.7-0.1-1.5,0.1-2.2,0.3
	c-1.3,0.4-1.2,0.3-2.6,0.6c-0.3,0.1-1.8,0.6-1.9,0.3c-0.5-1.1-1.1-2.3-1.6-3.4c-1-2.1-1.9-4.2-3.1-6.2c-0.6-0.9-1.2-1.7-2-2.4
	c-0.5-0.4-1-0.9-1.6-1.3c-1-0.6-1.8-1.1-3-1.3c-0.2,0-0.7,0-0.9,0c-0.1,0-0.1,0-0.2,0c0,0-0.1,0-0.1,0c-0.1,0-0.2,0-0.3,0
	c-0.1,0.1-0.2,0-0.3,0c-0.1,0-0.3,0-0.4,0c0,0-0.1,0-0.1,0c0,0-0.1,0-0.1,0c0,0-0.1,0-0.1,0c-0.5,0.1-1,0.1-1.5,0.1
	c-1.5,0.2-3,0.7-4.4,1.2c-1.8,0.7-1.8,1.2-3.5,1.9"/>
<polygon class="st0" points="7.9,31.1 41.2,17.4 42.5,20 8.1,34.4 "/>
</svg>
