<?xml version="1.0" encoding="utf-8"?>
<!-- Generator: Adobe Illustrator 23.1.0, SVG Export Plug-In . SVG Version: 6.00 Build 0)  -->
<svg version="1.1" id="Слой_1" xmlns="http://www.w3.org/2000/svg" xmlns:xlink="http://www.w3.org/1999/xlink" x="0px" y="0px"
	 viewBox="0 0 70 100" style="enable-background:new 0 0 70 100;" xml:space="preserve">
<style type="text/css">
	.st0{fill:#5B35A5;}
	.st1{fill:#30104F;}
</style>
<rect class="st0" width="70" height="100"/>
<path d="M15.1,100c0.5-0.8,3-10.4,3.1-12c0,0,0.1,0,0.1,0c2.4-1.8,2.2-4.8,3.4-7.3c0.8,7.3,1.4,12.2,2.4,19.3"/>
<g>
	<path class="st1" d="M40.4,72.6c-0.1,1.8-0.7,2.4-2,2.3c-0.4,0-0.9-0.5-1.1-0.9c-0.5-1.1-0.8-2.2-1.2-3.4c-0.1,0-0.2,0-0.3,0
		c-0.1,0.5-0.2,1-0.2,1.5c-0.1,0.5-0.1,1.1-0.2,1.6c-0.2,0.9-0.9,1.2-1.8,1.2c-0.9-0.1-1.2-0.7-1.2-1.5c0-0.6,0.4-1.6-0.6-1.6
		c-0.2,0-0.7,1.1-0.8,1.7c-0.2,1.8-0.4,1.9-2,1c-0.2-0.1-0.4-0.3-0.6-0.3c-1.2-0.3-1.4-0.9-1-2.1c0.2-0.6,0.1-1.3,0.1-1.9
		c0-0.3-0.4-0.7-0.6-0.7c-0.3,0-0.6,0.3-0.8,0.6c-0.2,0.4-0.2,1-0.4,1.4c-0.2,0.4-0.5,0.7-0.8,1c-0.3-0.4-1-1-1-1.3
		c0.3-1.1,0.7-2.2-0.5-3c-0.9-0.6-1.9-1-2.9-1.2c-1.6-0.4-3.2-0.4-4.9,0.4c-1,0.5-2.5,0.2-3.8,0c-0.4-0.1-0.9-0.8-1-1.3
		c-0.6-1.8-0.5-3.6,0.1-5.4c0.5-1.4,1-2.9,1.4-4.3c0.7-3.1-0.5-5.7-2.3-7.9c-1-1.3-1.7-2.5-2-4.1C7,40.6,6.3,36.9,6.6,33.1
		c0.3-3.7,2-6.8,4.2-9.7c4.2-5.5,9.9-8.5,16.5-9.9c10.9-2.3,21.2-0.6,30.8,5.1c3.1,1.8,5.7,4.3,7.7,7.3c2.5,3.9,2.6,8.3,2.5,12.8
		c0,1.5-0.4,3-0.8,4.5c-0.4,1.7-1.4,3-2.9,4c-0.6,0.4-1.1,0.9-1.4,1.5c-2.1,4.2-3.2,8.5-1.4,13.1c0.3,0.8,0.5,1.6,0.8,2.5
		c0.3,0.8,0,1.4-0.7,1.8c-1.4,0.9-2.8,1.5-4.5,0.5c-2.5-1.4-4.7-0.4-6.7,1.1c-1,0.8-1.5,1.7-1.1,3.1c0.2,0.6,0,1.4-0.4,1.9
		c-0.4,0.5-1.3,0.9-1.9,0.8c-0.4-0.1-0.7-1-1-1.6c-0.1-0.3-0.1-0.8-0.2-1.1c-0.2-0.4-0.5-0.8-0.8-1.3c-0.4,0.4-0.9,0.7-1,1.2
		c-0.2,0.7-0.1,1.5-0.2,2.3c-0.1,0.5-0.4,1-0.6,1.6c-0.6-0.3-1.2-0.5-1.8-0.8C41.3,73.5,41,73.1,40.4,72.6z M51.2,42.8
		c-3.5-0.3-6.6,1.1-9.4,3.4c-1.8,1.5-1.9,2.9-0.5,4.8c3.4,4.6,9.2,5.1,13.6,3.2c3.9-1.7,4.6-7.4,1.5-10.2
		C54.9,42.7,53.2,42.7,51.2,42.8z M23.5,55.3c3.9-0.1,6.9-1.6,9.1-4.8c0.9-1.4,0.9-2.6-0.2-3.7c-3.7-3.8-8.4-4.8-13.4-3.8
		c-2.3,0.4-3.6,2.6-3.7,5.1c-0.1,3.2,1.3,5.5,4,6.4C20.7,54.9,22.1,55,23.5,55.3z M42.3,60.7c-0.1-0.5-0.1-0.7-0.2-0.9
		c-1.2-2.1-2.3-4.2-3.5-6.3c-0.5-0.9-1.9-0.8-2.5,0c-0.5,0.6-0.9,1.3-1.2,2c-0.8,1.4-1.6,2.8-2.3,4.2c-0.2,0.5-0.2,1.3,0.1,1.6
		c0.3,0.3,1.2,0.4,1.7,0.2c0.6-0.3,1-0.9,1.4-1.4c0.9-1.3,2.3-1.4,3.2,0c0.2,0.3,0.3,0.8,0.6,0.9c0.7,0.3,1.4,0.5,2.1,0.5
		C41.8,61.5,42.1,61,42.3,60.7z"/>
	<path class="st1" d="M38,89.1c-1.2-0.4-2.4-0.7-3.5-1.3c-3.3-1.8-6.7-3.1-10.4-3.9c-1.9-0.4-2.6-1.2-2.8-3.1
		c-0.4-3.4-0.8-6.7-1.1-10.1c-0.1-0.7-0.1-1.5-0.1-2.2c0-0.4,0.4-0.8,0.6-1.2c0.4,0.3,0.9,0.5,1.1,0.9c0.4,0.8,0.6,1.7,0.8,2.5
		c0.3,0.9,0.5,1.8,1,2.6c0.6,0.9,1.2,1.7,2.6,1.2c1.3-0.4,1.9,0.2,2.3,1.4c0.1,0.3,0.4,0.6,0.7,0.6c0.3,0,0.8-0.1,1-0.4
		c0.8-1.1,1.1-1.2,1.9-0.3c0.6,0.6,1.1,0.5,1.7,0c1.1-1,1.5-1,2.6-0.1c0.6,0.6,1.2,0.9,1.9,0.1c0.1-0.1,0.8,0,1,0.2
		c0.7,0.7,1.4,0.8,1.9-0.1c0.6-0.9,1.2-0.8,1.9-0.2c0.3,0.2,0.6,0.6,1,0.7c0.6,0.2,1.1,0.2,1.2-0.7c0.3-1.7,0.9-2,2.6-1.4
		c2.6,0.9,2.7,0.9,3.4-1.9c0.3-1.1,0.5-2.3,0.9-3.4c0.1-0.4,0.6-0.7,1-1c0.3,0.4,0.7,0.7,0.8,1.1c0.1,1.1,0.1,2.2,0.1,3.3
		c0.1,2.1,0.3,4.2,0.5,6.3c0.1,1.1-0.7,2.3-2.3,2.6c-2.3,0.4-3.7,1.9-5,3.7c-0.9,1.2-2,1.9-3.4,2.2c-1.6,0.4-3.1,1-4.6,1.5
		c-0.3,0.1-0.7,0.1-1.1,0.2C38.1,88.9,38,89,38,89.1z"/>
</g>
<path d="M15.1,100C15.1,100,15.1,100,15.1,100"/>
<path d="M32.7,100c0.7-0.6,0.3-1.1,0.1-2c-0.8-3-0.1-6.1-0.3-9.1c-0.1-1.6-0.2-3.2-1.2-4.5c-0.7-1-0.9-2.1-0.2-3.2
	c1.4-2,0-4.4,0.9-6.4c0-0.6,0-1.2,0.1-1.7c1.1-2.1,2.3-4.2,1.4-6.8c1.9,2.2,2.7,1.2,3-1c-0.2-1.6-0.4-3.1-0.7-4.7
	c-0.8-5.1-1.2-10.3-3.4-15.1c-2.7-6.1-1.4-8.4,4.7-9.7c0.8-0.3,1.6-0.5,2.4-0.8c1.1-0.5,2.3-0.3,3.4-0.3c1.2,0,2.2-0.4,2.4-1.6
	c0.5-2.5,2.5-2.8,4.4-2.5c1.9,0.3,3.6,0.7,5-1.5l0.5-0.9c1.8,0,5.4,0.2,6.2-1.3c-1.6-0.3-3.8-0.4-5.7-0.4c-0.1-0.2-0.2-0.3-0.3-0.5
	c-1.2-1.4-2.7-2.3-4.5-1.8c-4.4,1.3-9,0.7-13.5,1.1c-1.2,0.3-2.4,0.4-2.9,0.6c0,0,0.7-0.3,1.2-0.6c3.3-2.7,5.2-6.5,7.5-10
	c0.5-0.8,0.9-1.9,1.9-1.8c1.1,0.1,1.2,1.3,1.6,2.1c0.4,1,0.5,2.1,1.6,2.6c4.3,2.4,9.1,1.6,13.6,2.4c0.8,0.1,1.5-0.6,2-1.3
	c1.6-1.3,0.8-3.4,1.6-4.8c1-1.7-0.2-1.9-1.2-2.4l0,0c-0.8-2-2.5-3-4.3-3.8c-0.6-0.7-0.8-1.5-0.8-2.3c-0.2-2.2-1.9-2.9-3.7-3.4
	c-0.9-0.2-1.7-0.5-2.6-0.7c-1-0.3-2.1-0.4-3.1,0.1c-0.4,0.2-0.8,0.5-1.3,0.7c-1.2,0.4-2.6,0.4-3.2,1.9l0,0c-2.2,3.1-5.7,4.8-8.3,7.5
	c-0.4,0.3-0.8,0.5-1.2,0.8c-0.6,0.2-1.2,0.5-1.2,1.3c-0.3,0.4-0.6,0.8-0.9,1.2c-2.1,1.2-4.1,2.6-6.2,3.9c-1.6-0.1-3.1,0.5-4.6,0.9
	c-0.2,0-0.5,0-0.7,0c-0.4-0.7-0.5-1.5-0.5-2.3c0.4-0.5,0.6-1.1,0.6-1.8c-0.3-1-0.1-2.1-0.3-3.1c-0.5-3.1-1-6.1-3.6-8.3
	c-4.2-0.9-8.1,0-11.9,1.9c-0.9,0.4-1.4,1.1-2,1.7C4.5,8.5,4.2,8.7,4,9c-1.8,1-1.1,2.4-0.5,3.8l0,0c0.4,1.3,0.5,2.7,1.3,3.8l0,0
	c1.4,3.3-0.5,6.4-0.6,9.6l0,0c-1.4,5,0.2,9.9,1.1,14.7C6.4,47.3,9,53.4,8.9,60C8.8,67.4,10.1,74.9,9,82.3c0.1,0.3,0.2,0.6,0.3,1
	C9,84,9.1,84.7,9,85.5c-0.8,7.9-0.7,5-2.4,14.5"/>
<path class="st0" d="M21.7,80.7c-1.2,2.5-1,5.5-3.4,7.3c0,0-0.1,0-0.1,0c-0.1,1.6-2.6,11.1-3.1,12h9C23.2,92.9,22.6,88,21.7,80.7z"
	/>
<rect y="99.7" width="70" height="0.3"/>
</svg>
