<?xml version="1.0" encoding="utf-8"?>
<!-- Generator: Adobe Illustrator 23.1.0, SVG Export Plug-In . SVG Version: 6.00 Build 0)  -->
<svg version="1.1" id="Слой_1" xmlns="http://www.w3.org/2000/svg" xmlns:xlink="http://www.w3.org/1999/xlink" x="0px" y="0px"
	 viewBox="0 0 70 100" style="enable-background:new 0 0 70 100;" xml:space="preserve">
<style type="text/css">
	.st0{fill:#39B54A;}
	.st1{fill:#009245;}
	.st2{fill:none;stroke:#FFFFFF;stroke-width:5;stroke-miterlimit:10;}
	.st3{display:none;fill:none;stroke:#FFFFFF;stroke-width:3;stroke-miterlimit:10;}
	.st4{fill:none;stroke:#FFFFFF;stroke-miterlimit:10;}
	.st5{fill:none;stroke:#FFFFFF;stroke-width:0.5;stroke-miterlimit:10;}
	.st6{fill:#B3B3B3;}
</style>
<g>
	<rect class="st0" width="70" height="100"/>
	<g>
		<g>
			<path class="st1" d="M63.4,45.2c-0.9-0.5-1.9-0.8-2.9-0.8l0,0l-4.6-8l4.6-7.9l0,0c1,0,2-0.3,2.9-0.8c2.8-1.6,3.8-5.2,2.1-8
				c-1-1.8-3-2.9-5.1-2.9c-1,0-2,0.3-2.9,0.8s-1.6,1.3-2.1,2.1h-9.2l-4.6-8c0.5-0.9,0.8-1.9,0.8-2.9c0-3.2-2.6-5.9-5.9-5.9
				s-5.9,2.6-5.9,5.9c0,1,0.3,2,0.8,2.9l-4.6,8h-9.2c-0.5-0.9-1.2-1.6-2.1-2.1s-1.9-0.8-2.9-0.8c-2.1,0-4,1.1-5.1,2.9
				c-1.6,2.8-0.7,6.4,2.1,8c0.9,0.5,1.9,0.8,2.9,0.8l0,0l4.6,8l-4.6,7.9l0,0c-1,0-2,0.3-2.9,0.8c-2.8,1.6-3.8,5.2-2.1,8
				c1,1.8,3,2.9,5.1,2.9c1,0,2-0.3,2.9-0.8s1.6-1.3,2.1-2.1h9.2l4.6,8C31,62,30.7,63,30.7,64.1c0,3.2,2.6,5.9,5.9,5.9
				c3.2,0,5.9-2.6,5.9-5.9c0-1-0.3-2-0.8-2.9l4.6-8h9.2c0.5,0.9,1.2,1.6,2.1,2.1c0.9,0.5,1.9,0.8,2.9,0.8c2.1,0,4-1.1,5.1-2.9
				C67.2,50.4,66.2,46.8,63.4,45.2z M62.7,51.5c-0.5,0.8-1.3,1.3-2.2,1.3c-0.4,0-0.9-0.1-1.3-0.3c-0.9-0.5-1.4-1.6-1.2-2.6H44.3
				l-6.9,11.9c1,0.4,1.6,1.3,1.6,2.3c0,1.4-1.1,2.5-2.5,2.5S34,65.5,34,64.1c0-1.1,0.7-2,1.6-2.3l-6.9-11.9H15.2
				c0.2,1-0.3,2.1-1.2,2.6c-0.4,0.2-0.8,0.3-1.3,0.3c-0.9,0-1.7-0.5-2.2-1.3c-0.7-1.2-0.3-2.7,0.9-3.4c0.4-0.2,0.8-0.3,1.2-0.3
				c0.6,0,1.2,0.2,1.6,0.6l6.9-11.9l-6.9-11.9c-0.5,0.4-1,0.6-1.6,0.6c-0.4,0-0.8-0.1-1.2-0.3c-1.2-0.7-1.6-2.2-0.9-3.4
				c0.5-0.8,1.3-1.3,2.2-1.3c0.4,0,0.9,0.1,1.3,0.3c0.9,0.5,1.4,1.6,1.2,2.6h13.7l6.9-11.9c-1-0.4-1.6-1.3-1.6-2.3
				c0-1.4,1.1-2.5,2.5-2.5s2.5,1.1,2.5,2.5c0,1.1-0.7,2-1.6,2.3l6.9,11.9H58c-0.2-1,0.3-2.1,1.2-2.6c0.4-0.2,0.8-0.3,1.3-0.3
				c0.9,0,1.7,0.5,2.2,1.3c0.7,1.2,0.3,2.7-0.9,3.4c-0.4,0.2-0.8,0.3-1.2,0.3c-0.6,0-1.2-0.2-1.6-0.6l-7,11.9l6.9,11.9
				c0.5-0.4,1-0.6,1.6-0.6c0.4,0,0.8,0.1,1.2,0.3C62.9,48.8,63.4,50.3,62.7,51.5z"/>
		</g>
	</g>
	<line class="st2" x1="3.4" y1="4.9" x2="52.7" y2="75.3"/>
	<line class="st3" x1="2.8" y1="23.2" x2="49.2" y2="89.5"/>
	<line class="st4" x1="20.3" y1="9.2" x2="68.3" y2="77.8"/>
	<line class="st5" x1="44.3" y1="1.1" x2="69.3" y2="36.8"/>
	<line class="st5" x1="68.7" y1="31.2" x2="48.4" y2="2.1"/>
	<line class="st5" x1="66.7" y1="21.9" x2="54.2" y2="4.1"/>
</g>
<path d="M69.2,61.6c-0.6-2.5-0.9-4.9-1.8-7.3c-0.8-2.4-2.1-4.5-4.2-6c-1-0.7-1.7-1.6-2.3-2.8c-1.4-3-1.2-2.9-4.8-3.7
	c-0.9-0.2-1.6-0.5-2.5-0.3c-0.4,0.1-0.9-0.1-1.2-0.4c-1.3-1.5-2.9-2.7-3.9-4.5c-0.3-0.5-0.7-0.8-1.3-0.5c-0.7,0.4-0.9,0-1.1-0.6
	c-0.3-1.1-0.3-2.3-0.4-3.4c0-0.3,0.2-0.5,0.4-0.7c0.6-0.4,1-0.9,1.1-1.6c0.1-1.4,0.2-2.8-0.2-4.1c-0.1-0.4-0.3-0.7-0.8-0.6
	c-0.5,0.1-0.6-0.2-0.7-0.5c-0.1-0.2,0-0.4,0.1-0.5c0.6-0.3,1.2-0.7,1.9-1.1c0.1,0,0.2-0.1,0.2-0.1c0.9-0.3,1.8-0.7,2.7-1.1
	c1.6-0.6,2.8-1.7,3.6-3.3c0.1-0.2,0.3-0.6,0.2-0.8c-0.2-0.3-0.5,0-0.8,0.1c-1,0.5-2,1-2.9,1.7c-1.3,1-2.6,2-3.9,2.9
	c-0.3,0.2-0.6,0.4-0.9,0.6c-0.2,0-0.3-0.1-0.3-0.6c0-0.2-0.2-0.5-0.4-0.6c-0.4-0.1-0.6-0.5-0.7-0.9c-0.4-1.1-0.8-2.1-1.2-3.2
	c-1-3-3.2-5.1-5.3-7.3c-0.7-0.8-1.7-0.7-2.5,0c-0.8,0.8-1.7,0.8-2.7,0.3c-1.4-0.7-2.1-0.5-2.8,0.9c-0.6,1.3-1.4,2.6-2.3,3.8
	c-0.8,1.1-1.3,2.3-1.4,3.7C26,20,26,20.8,25.9,21.7c-0.1,0.8-0.1,1.7-0.3,2.5V24c-1.8-1.2-4.5-2.4-7.5-2c-1,0.1-2.3,0.5-2.3,0.8
	s2.4,0.1,5.2,0.9c0.4,0.1,0.7,0.2,1,0.3c0.9,0.4,1.9,0.8,2.8,1.3c0.3,0.2,0.5,0.3,0.7,0.5c0,0.2-0.1,0.3-0.1,0.5
	c0,0.3,0.1,0.7,0.2,1c0,0.1-0.1,0.3-0.1,0.5c0,0.1,0.2,0.4-0.1,0.4c-0.8,0.1-0.6,0.7-0.6,1.2c0,1.1,0.7,1.9,1,2.8
	c0.3,0.8,0.9,1.3,1.6,1.7c0.2,0.1,0.4,0.2,0.6,0.2c0.1,0.4,0.3,0.8,0.4,1.1c1,2.2,2.5,3.9,4,4.6c0.1,0.2,0.1,0.3,0.2,0.5
	c0,0.2,0.1,0.4,0,0.4c-0.6,0.5-0.2,1.1,0,1.7c0.1,0.3,0.2,0.6,0,1.1c-0.3-0.8-0.6-0.7-1-0.3c-1.3,1.1-2.4,2.3-3.5,3.6
	c-0.9,1-1.8,1.7-3.2,1.6c-0.4,0-0.8,0.1-1.1,0.5c-0.5,0.7-1.1,1.4-1.8,1.8c-0.8,0.4-1.3,0.9-1.7,1.6c-0.5,1-1.3,1.7-2.1,2.4
	c-0.4,0.4-1,0.7-0.6,1.4c0,0.1,0,0.2-0.1,0.3c-0.4,0.4-0.5,1-0.7,1.5c-0.1,0.2-0.1,0.4-0.4,0.5c-0.8,0.4-1,0.7-0.5,1.5
	c0.1,0.2,0.2,0.4,0.4,0.7c-0.3,0-0.5-0.1-0.6,0.1c-0.5,0.7-1.3,1.1-1.5,2.1c-0.1,0.4-0.5,0.6-0.8,0.8c-0.7,0.4-1.4,0.8-2.3,0.9
	c-1.4,0.1-1.9,0.8-0.8,1.7c0.6,0.5,0.4,0.9-0.2,1.2c-1,0.6-2,1.1-2.8,1.8c-0.7,0.6-1.2,1.3-1.3,2.3C6,73.5,6,75.6,5,77.6
	c-0.4,0.8-0.2,1.7,0.1,2.5c0.3,0.8,1,1.4,0.9,2.4c0,0.1,0.3,0.5,0.5,0.6c0.4,0.8,2.1,1.4,4.2,1.5c0.6,0.3,1.2,0.5,1.8,0.6
	c2.4,0.5,4.7,0.4,6.6-1.5c0.1,0,0.1-0.1,0.2-0.1c0.2-0.1,0.3-0.2,0.5-0.2c-0.4,1.7-0.6,4-0.6,6.6c0,3.3,0.4,6.2,0.9,7.9
	c-0.6,0.7-1,1.4-1.3,2.3c13.7,0,27.3,0,41.3-0.4c-0.3-0.9-0.8-1.7-1.3-2.5c0.5-1.2,0.8-2.9,0.9-4.8c0,0,0.1,0,0.1,0
	c0.2,0.1,0.5,0.1,0.8,0c0.3-0.1,0.5-0.2,0.7-0.4c0.5-0.3,0.9-1.1,1.3-2.1c0.6-0.9,1.1-2.5,1.1-4.3c0-1.9-0.5-3.6-1.1-4.5
	c0-0.1,0.1-0.2,0.1-0.3c0.7-1.4,1.2-2.9,1.5-4.5c0.1-0.6,0.3-1.2,0.6-1.7c1.3-2.4,1.5-5.2,2.6-7.7c0.3-0.9,0.6-1.9,1.2-2.6
	C69.2,63.4,69.4,62.6,69.2,61.6z"/>
<path d="M28.3,29.5l-0.1-0.1c0-0.1,0-0.2,0-0.3c0-0.1,0-0.1,0.1-0.1s0.1,0,0.2-0.1c0.2-0.5,0.6-0.8,1-1c0.5-0.2,1-0.4,1.6-0.4
	c0.6-0.1,1.2-0.2,1.8-0.2c0.9,0,1.7-0.2,2.6-0.3c0.7-0.1,1.5-0.2,2.2-0.3c0.5-0.1,1-0.2,1.5-0.2c0.6-0.1,1.3-0.1,1.9,0
	c0.4,0,0.8,0.1,1.2,0.4c0.2,0.1,0.3,0.3,0.4,0.4c0.1,0.1,0.1,0.1,0.2,0.1c0.1,0,0.1,0,0.1,0.1s0,0.2,0,0.3c0,0.1,0,0.1-0.1,0.2v0.1
	c0.1,0.4,0.1,0.8,0.1,1.2c0,0.5-0.1,0.9-0.3,1.3c-0.3,0.6-0.8,0.9-1.5,1s-1.4,0-2.1-0.4c-1-0.5-1.7-1.3-2.3-2.2
	c-0.1-0.2-0.2-0.4-0.2-0.6c-0.1-0.2-0.1-0.4-0.1-0.6c0-0.1-0.1-0.2-0.1-0.2c-0.1-0.1-0.2-0.2-0.4-0.2c-0.5-0.2-1.1,0-1.3,0.4
	c-0.1,0.1-0.1,0.2-0.1,0.3c0.1,0.7,0,1.3-0.3,1.9c-0.3,0.7-0.7,1.3-1.2,1.8s-1.2,0.9-1.9,1c-1.1,0.2-2-0.4-2.4-1.5
	c-0.2-0.5-0.3-1-0.3-1.6C28.4,29.6,28.4,29.5,28.3,29.5C28.4,29.5,28.4,29.5,28.3,29.5z M33.6,27.2L33.6,27.2
	c0.4,0.1,0.7,0.4,0.9,0.8c0.1-0.4,0.4-0.7,0.8-0.8c0.5-0.1,1,0,1.3,0.5c0.1-0.4,0.4-0.7,0.7-0.9C36.1,26.9,34.8,27.1,33.6,27.2z"/>
<g>
	<path class="st6" d="M42.7,27.1c-0.1-0.2-0.3-0.3-0.4-0.4c-0.3-0.3-0.8-0.3-1.2-0.4c-0.1,0-0.2,0-0.3,0l2.2,2.6c0-0.3,0-0.6-0.1-1
		v-0.1"/>
	<path class="st6" d="M42,31.2c0.2-0.1,0.3-0.2,0.5-0.4l-3.9-4.4c-0.2,0-0.5,0.1-0.7,0.1L42,31.2z"/>
	<path class="st6" d="M29.7,27.7l3.5,3.8c0.1-0.1,0.2-0.2,0.2-0.3l-3.3-3.7C30,27.6,29.8,27.6,29.7,27.7z"/>
	<path class="st6" d="M37.6,26.6L37.6,26.6c-0.8,0.1-1.5,0.2-2.2,0.3c-0.9,0.1-1.7,0.2-2.6,0.3c-0.4,0-0.7,0-1.1,0.1l2.5,2.8
		c0,0,0-0.1,0.1-0.1c0.3-0.6,0.4-1.2,0.3-1.9c0-0.1,0-0.2,0.1-0.3c0.3-0.4,0.9-0.6,1.3-0.4c0.1,0.1,0.3,0.2,0.4,0.2
		c0.1,0,0.1,0.1,0.1,0.2c0,0.2,0.1,0.4,0.1,0.6c0.1,0.2,0.1,0.4,0.2,0.6c0.6,0.9,1.3,1.7,2.3,2.2c0.7,0.3,1.3,0.5,2.1,0.4
		c0.2,0,0.5-0.1,0.7-0.2L37.6,26.6z M36.6,27.7c-0.3-0.5-0.8-0.6-1.3-0.5c-0.4,0.1-0.7,0.4-0.8,0.8c-0.2-0.4-0.5-0.6-0.9-0.7l0,0
		c1.2-0.1,2.5-0.3,3.8-0.4C37,27,36.7,27.3,36.6,27.7z"/>
	<path class="st6" d="M28.3,29.5c0,0.5,0.1,1.1,0.3,1.6c0.4,1.1,1.3,1.7,2.4,1.5c0.8-0.1,1.4-0.5,1.9-1c0,0,0,0,0.1-0.1l-3.4-3.8
		c0,0.1-0.1,0.1,0,0c-0.5,0.2-0.9,0.5-1.1,1"/>
</g>
<rect y="99.7" width="70" height="0.5"/>
</svg>
