<?xml version="1.0" encoding="utf-8"?>
<!-- Generator: Adobe Illustrator 23.1.0, SVG Export Plug-In . SVG Version: 6.00 Build 0)  -->
<svg version="1.1" id="Слой_1" xmlns="http://www.w3.org/2000/svg" xmlns:xlink="http://www.w3.org/1999/xlink" x="0px" y="0px"
	 viewBox="0 0 50 100" style="enable-background:new 0 0 50 100;" xml:space="preserve">
<style type="text/css">
	.st0{fill:#FFFFFF;}
</style>
<path class="st0" d="M49.4,75.6c-0.9-0.1-1.5-0.1-2-0.3c-1.6-0.7-3.1-0.9-4.8-0.3c-1.7,0.6-3.4-1.2-3.6-3.3c-0.2-2.4-0.7-4.9-1-7.3
	c-0.3,0-0.5-0.1-0.8-0.1c-0.3,0.7-0.7,1.4-0.8,2.1c-0.4,2.1-0.7,4.3-1.2,6.4c-0.8,3.1-1.6,6.2-1.2,9.5c0.2,1.5-0.4,3.1-0.7,4.7
	c-0.1,0.4-0.4,0.9-0.3,1.3c0.3,3.5,0.6,7,1,10.7c-1.2,0-3,0-4.7,0c-0.3-1.9-0.7-3.5-0.7-5.2c0-2.2,0.4-4.4,0.7-6.6
	c0-0.3,0.2-0.7,0.2-1c-0.6-3.9,0.3-7.9-0.8-11.8c-0.9-3.3-0.7-3.4-4.1-4.6c-1.6,2.7-2.4,5.5-0.6,8.5c0.5,0.9,0.7,2.1,0.6,3.1
	c-0.3,2.8-0.8,5.5-1.2,8.2c-0.1,0.4,0.1,0.9,0.1,1.3c0.4,2.3,0.9,4.6,1.4,7.2c-1.8,0.1-3.1,0.2-4.4,0.3c-1.5,0.1-1.7-0.6-1.3-1.9
	c0.4-1.6,0.7-3.2,1-5c-2.4,0.6-4.2-0.7-4.1-2.7c0-0.6,0.5-1.3,0.9-1.7c0.9-0.9,2-1.6,3-2.5c0.3-0.2,0.1-1,0.1-1.5
	c-0.2-1.9-0.3-3.9-0.7-5.8c-0.3-1.4-0.9-2.7-1.4-4c-0.6-1.6-1.5-3.1-1.8-4.8c-0.3-1.8-0.5-3.5-1.8-5c-0.4-0.5-0.5-1.3-0.4-1.8
	c-1.6,4.9-3.1,9.9-4.7,14.8C9,77.5,8.4,77.8,8,78.1c-0.2-0.6-0.7-1.2-0.6-1.7c0.3-1.3,0.9-2.5,1.5-3.9c-1.6,1-3,1.8-2.6,3.9
	c0.1,0.3-1,1.1-1.3,1c-1.5-0.6-3-1.4-4.4-2.2c-0.2-0.1-0.3-1.1-0.1-1.3c2.3-2.1,2.2-4.9,2.9-7.6c1.1-4.3,3.1-8.4,4.8-12.6
	c1-2.6,2.1-5.1,3.1-7.7c0.1-0.4-0.3-1.3-0.7-1.5c-1.8-1.1-2.5-3.1-1.8-5.2c0.9-2.5,1.5-5.2,2.3-7.7c0.5-1.6,1-3.3,1.9-4.6
	c2-2.8,3.4-5.8,4-9.1c0.5-2.7,1.9-4.2,4.5-4.6c1.7-0.3,3.2-0.8,4.2-2.4c0.7-1.1-0.5-4.3-2-5.1c-0.6-0.3-1.1-0.5-1.7-0.7
	c0.1-0.3,0.2-0.5,0.2-0.5c2.1,0,3.3-0.9,3.6-3c0.2-1.2,1-1.7,2.3-1.5c1.3,0.2,3-0.3,3.8,0.3C32.7,1,32.5,2.7,32.8,4
	C33,4.4,33.5,4.8,34,5c0.7,0.3,1.5,0.4,2.3,0.9c-0.5,0.2-1,0.3-1.4,0.6c-0.9,0.6-2,1-2.6,1.9c-1.6,2.2-0.5,4.6,2.3,5.2
	c3.5,0.7,3.5,0.7,4,4.3c0.5,3,0.9,6,1.3,9c0.4,2.6-0.3,3.7-3,4c-0.2,0-0.5,0.1-1.3,0.3c1,2.3,2,4.5,2.9,6.7c0.5,1.4,2.4,2.3,1.5,4.3
	c-0.1,0.2,0.5,0.8,0.9,1.2c2.2,2.3,3.2,5.1,3.3,8.3c0,2.4,0.3,4.8,0.5,7.2c0,0.6,0.3,1.4,0.1,1.9c-1.6,3.5,0.9,5.6,2.7,7.9
	c1,1.2,1.8,2.3,1.1,4.1C48.3,73.3,49,74.3,49.4,75.6z"/>
</svg>
