<?xml version="1.0" encoding="utf-8"?>
<!-- Generator: Adobe Illustrator 23.1.0, SVG Export Plug-In . SVG Version: 6.00 Build 0)  -->
<svg version="1.1" id="Слой_1" xmlns="http://www.w3.org/2000/svg" xmlns:xlink="http://www.w3.org/1999/xlink" x="0px" y="0px"
	 viewBox="0 0 70 100" style="enable-background:new 0 0 70 100;" xml:space="preserve">
<style type="text/css">
	.st0{fill:#FF00FF;}
	.st1{fill:#D4145A;}
</style>
<rect class="st0" width="70" height="100"/>
<g>
	<path class="st1" d="M53.7,31.6c-0.7-0.6-1.2-1-1.4-0.9c-0.2,0-0.3,0-0.3-0.7c0-0.6-0.2-1-0.7-1c-0.4-0.1-0.7,0-1.3,0.6
		c-0.7,0.6-0.9,0.7-1,0.4c-0.2-0.2,0.1-0.6,0.4-0.7c0.2,0,0.8-0.6,0.8-0.9c0-0.2-0.1-0.3-0.7-0.6c-0.6-0.2-1.3-0.2-1.6-0.1
		s-0.4,0-0.8-0.1c-0.8-0.6-0.8-0.6-1.6,0c-0.8,0.7-2.1,1.3-2.2,1.1c0,0,0-0.2,0-0.3c0.1-0.3,0-0.6-0.3-0.8c-0.3-0.2-0.4-0.6-0.4-1
		c0-0.7-0.1-0.9-0.4-0.9c-0.2,0-0.6,0.1-0.8,0.6C41,26.9,41,26.9,41.1,26c0.2-1.1,0-1.9-0.4-2.6c-0.6-0.7-1.1-0.9-2.2-0.7
		c-0.3,0-0.4,0-0.6-0.3c-0.1-0.3-0.4-0.7-0.8-0.6c-0.1,0-0.2,0.1-0.3,0.3c-0.2,0.4-0.2,0.4-1-0.4c-0.7-0.7-0.7-0.8-0.9-0.9
		c-0.3-0.1-0.9-0.2-1.7-0.2c-0.8,0-0.9,0-1.1,0.2c-0.2,0.2-0.3,0.4-0.6,1.1c-0.1,0.2-0.1,0.4-0.1,0.3c0,0,0-0.2-0.1-0.4
		c0-0.6-0.1-0.8-0.2-1c-0.1-0.1-0.3-0.1-0.4,0.1c0,0.1-0.1,0.1-0.1,0.2c-0.1,0-0.3,0-0.4-0.2c-0.3-0.4-1.1-0.4-3.6-0.2
		c-1.7,0.2-2.1,0.3-2.3,0.8c-0.1,0.2-0.1,0.7-0.1,1.2c0,0.9-0.1,1.6-0.4,1.4c-0.2,0-0.3-0.4-0.3-1.3c-0.1-0.8-0.3-1.4-0.7-1.8
		c-0.2-0.2-0.4-0.2-0.7,0s-0.2,0.2-0.7,0.1c-0.2-0.1-0.4,0-0.8,0.2c-0.3,0.2-0.8,0.3-1.3,0.2c-1.3-0.2-2.2-0.2-3.1,0.2
		c-0.2,0.1-0.3,0.2-0.7,0.4c-0.6,0.4-0.7,0.6-1.7,0.1c-0.9-0.3-1.4-0.4-2.1-0.6c-0.8-0.1-1,0-1.3,0.3c-0.3,0.3-0.7,0.6-1.4,0.7
		c-1.2,0.3-2.1,0.3-2.8,0c-0.7-0.2-1.1-0.2-1.9,0.2c-1,0.6-1.7,1.1-1.8,1.4c-0.1,0.3-0.1,0.7,0,0.8c0.3,0.6,0.7,0.6,2,0.8
		c0.7,0.1,1.3,0.2,1.7,0.2c0.4,0.1,0.4,0.1,0.7,0.4c0.3,0.4,0.4,0.4,1.1,0.3s0.7-0.1,0.8,0.6c0.1,0.7,0.3,0.9,2.1,1.7
		c0.6,0.2,1.1,0.4,1.1,0.4s0.2-0.3,0.3-0.8c0.6-1.2,0.9-1.4,1.2-1.2c0.2,0.2,0.3,0.6,0.4,1.4c0.1,0.7,0.2,1.2,0.4,1.4
		c0.1,0.1,0.2,0.1,0.3,0.1c0.2,0,0.2,0,0.4-0.2c0.4-0.3,0.6-0.3,0.8,0.2c0.3,0.8,1,0.9,1.8,0.3c0.4-0.3,0.8-0.8,1.1-1.7
		c0.4-1,0.6-1.1,0.6-0.4c0,0.4,0,0.9-0.2,1.3c-0.2,0.4-0.2,0.9,0,1.2c0.2,0.4,0.8,0.8,1.4,0.9c0.6,0,0.7,0,1-1
		c0.4-1,0.7-1.7,0.8-1.9c0.1-0.1,0.1-0.1,0.1,0s0,0.4,0,1.2c-0.1,1.2-0.1,1.4,0.1,1.7s0.4,0.3,1.7,0.6c1.2,0.2,1.4,0.4,2.4,1.3
		c1,1,1.1,1,1.7,0.8c0.7-0.2,0.7-0.2,0.9,0.7c0.1,0.8,0.3,1,0.6,1s0.2,0,0.6-0.2s0.8-0.7,1.2-1.4c0.1-0.2,0.3-0.6,0.3-0.6
		s0.1-0.1,0.1,0c0,0-0.1,0.4-0.3,0.9C31,37,30.8,37.9,31,38.8c0.1,0.3,0.1,0.4,0.3,0.8c0.2,0.2,0.3,0.3,0.6,0.4
		c0.4,0.3,0.9,0.8,1.1,1.6c0.2,0.7,0.6,1.1,0.9,1.2c0.7,0.3,0.9,0.1,2-1.9c0.9-1.6,1.3-2.3,1.7-2.9c0.2-0.2,0.4-0.4,0.6-0.4
		c0.2,0.1,0.1,0.4-0.9,2.4c-1.2,2.8-1.4,3.1-1.1,3.5c0.6,0.7,1.7,0.3,2.7-0.7c0.3-0.3,1-1.1,1.2-1.4c0,0-0.1,0.2-0.2,0.6
		c-0.4,1-0.4,1.4,0,1.9c0.6,0.7,1.2,0.2,2.2-1.6c0.7-1.2,1.6-2.7,1.9-3c0.1-0.1,0.1-0.1-0.1,0.4c-0.1,0.2-1.8,3.2-2.1,3.9
		c0,0.1,0.1,0.1,1,0.4c2.2,0.7,2.4,0.6,4-1.3c0.9-1.1,1.2-1.6,1.3-1.4c0.1,0.1-0.4,1.2-1.2,2.6c-0.3,0.7-0.7,1.2-0.8,1.3
		c-0.1,0.1,0,0.1,0.7,0.3c1.3,0.4,1.9,0.6,2.6,0.4c0.8-0.1,1.2-0.3,1.6-0.8c0.2-0.2,0.2-0.3,0.6-0.6c0.4-0.2,1.7-0.8,1.8-0.7
		c0,0-0.2,0.2-1.1,1c-1.2,1-1.2,1-1.3,1.3c-0.2,0.3-0.2,0.8-0.1,1.1c0.2,0.6,1.2,1.3,2,1.7c0.6,0.2,1,0.3,1.6,0.1
		c0.2-0.1,0.4-0.1,0.6,0c0,0,0,0.1-0.1,0.3c-0.2,0.6-0.2,0.8,0.2,1c0.6,0.2,0.8,0.4,1.4,1.1c0.6,0.6,0.7,0.7,0.9,0.8
		c0.6,0.2,1.2,0.2,2.4-0.2c0.7-0.2,1.2-0.3,1.2-0.3c0.1,0.1-0.2,0.4-0.6,0.4c-0.6,0.1-0.7,0.6-0.4,0.9c0.2,0.2,0.4,0.3,2.1,1.2
		c0.8,0.3,1.6,0.8,1.7,0.9c0.4,0.2,0.8,0.7,0.9,0.9c0.1,0.4,0.6,0.9,1.4,1.4c0.8,0.4,1.6,0.6,1.8,0.3c0.3-0.2,0.4-1,0.3-1.8
		c-0.1-0.8-0.2-1.2-0.7-2c-0.2-0.3-0.6-1-0.8-1.4c-0.3-0.8-0.3-0.8-1-1.6c-0.8-0.9-0.8-1.1-0.8-1.6s0-0.6-0.3-0.9
		c-0.2-0.2-0.3-0.4-0.2-0.9c0.1-0.7,0-0.8-0.8-1c-0.6-0.2-0.7-0.3-0.6-0.7c0.1-0.3,0.1-0.7,0.1-0.9c0-0.3-0.2-0.6-0.8-1.1
		c-0.2-0.2-0.2-0.2-0.3-0.7c-0.2-0.8-0.6-1.2-1.6-2.7c-0.8-1.1-1.2-1.7-1.6-2.3c-0.1-0.2-0.3-0.6-0.4-0.7c-0.2-0.2-0.2-0.2-0.9-0.4
		c-0.3-0.1-0.3-0.2-0.2-0.6c0.1-0.2,0.1-0.4,0-0.7c-0.1-0.3-0.4-0.8-1-1.3c-0.6-0.6-0.8-0.8-1-0.8c-0.4-0.1-1.3,0.3-1.9,0.8
		c-0.3,0.3-0.6,0.4-0.8,0.4c-0.1,0-0.1,0-0.1-0.1c0-0.1,0.1-0.2,0.7-0.7c1.1-0.8,1.4-1.1,1.4-1.3C54.9,32.9,54.5,32.2,53.7,31.6z
		 M36.7,24.9c-0.1,0.2-0.3,0.3-0.3,0.3s0.1-0.4,0.2-0.6C36.7,24.4,36.8,24.6,36.7,24.9z M34.8,36.9c-0.1,0.4-0.4,0.9-0.6,0.8
		c0-0.1,0.3-0.8,0.4-1C34.9,36.6,34.9,36.7,34.8,36.9z M19.2,27c0,0.2,0,0.4-0.1,0.4s-0.2-0.1-0.3-0.4c-0.1-0.3-0.1-0.4,0-0.6
		C18.9,26.3,19.2,26.8,19.2,27z"/>
	<path class="st1" d="M65.5,59.4c-0.8-0.3-3.3-0.6-4.3-0.4c-0.2,0-0.3,0.1-0.4,0.2c-0.1,0.2-0.2,0.1-0.8-0.4
		c-0.8-0.9-1.7-1.4-2.8-1.6c-0.3,0-0.6-0.1-0.7-0.1c-0.1,0-0.2-0.2-0.2-0.3c-0.3-0.7-1.6-1.2-2.2-1c-0.3,0.1-0.6,0-0.9-0.6
		c-0.4-0.6-1.1-1-1.8-1.1c-0.4-0.1-0.7,0-0.9,0.4S50,54.8,49.7,54c-0.2-0.6-0.3-0.7-0.7-1c-0.6-0.3-1.8-0.8-2.2-0.8
		c-0.3,0-0.6,0.2-0.7,0.6C46,53,46,53.7,46,54.4c0,0.1,0,0.3,0,0.3c-0.1,0-0.2-0.9-0.2-1.2c0-0.4,0-0.6-0.2-0.7
		c-0.2-0.1-0.6-0.1-0.8,0.1C44.7,53,44.6,53,44.5,53c-0.1,0-0.1-0.2-0.2-0.3C44,52.3,43.9,52,43.7,52c-0.1,0-0.2,0.1-0.6,0.3
		c-0.3,0.3-0.4,0.3-0.6,0.3c-0.1,0-0.3-0.1-0.6-0.2c-0.7-0.4-1-0.6-1.6-0.4c-0.6,0.1-0.7,0.1-0.9-0.4c-0.2-0.3-0.6-0.7-1-0.9
		c-0.7-0.3-1.6-0.3-1.8,0c-0.1,0-0.2,0.3-0.3,0.7c-0.4,1.2-0.8,2.2-0.9,2.2c0,0,0-0.3,0.1-0.8c0.2-1,0.2-1.7,0.2-1.9
		c-0.1-0.2-0.2-0.4-0.4-0.6c-0.2-0.1-1.3-0.7-1.7-0.8l-0.1-0.1L33,51.4c-0.3,1.1-0.7,2-0.8,2.1c-0.1,0.2-0.3,0.4-0.6,0.4
		c-0.3,0-0.3-0.3,0.2-1.6c0.8-1.7,0.9-2.2,1-2.9c0-0.4,0-0.8-0.2-1c-0.1-0.1-0.2-0.2-0.7-0.2c-0.2,0-0.7-0.1-0.8-0.2
		c-0.3-0.1-0.8,0-1.2,0.2c-0.2,0.1-0.4,0.2-0.4,0.2c-0.1,0,0-0.1,0.1-0.4c0.3-0.6,0.2-0.9-0.4-1.2c-0.8-0.4-1.8-0.4-2.7,0.1
		c-0.1,0.1-0.7,0.4-1.1,0.9c-0.8,0.7-1,0.8-1.1,0.7c-0.1-0.1,0-0.3,0.2-0.7c0.1-0.1,0.6-0.6,1.3-1.2c1-0.9,1.1-1,1.2-1.1
		c0.2-0.6-0.4-1.3-2-2.1c-1.1-0.6-1.4-0.9-1.6-1.2c-0.1-0.3-0.6-0.7-1.3-0.9c-0.6-0.1-1-0.2-1.4,0c-0.2,0.1-0.4,0.1-0.4,0.1
		s0-0.1,0-0.2c0-0.1,0.1-0.2,0.1-0.3c0-0.4-1.2-1.1-2.8-1.3c-0.7-0.1-1.1-0.1-1.3,0.1c-0.1,0.1-0.2,0.1-0.2,0.1
		c-0.1,0-0.6-0.1-0.6-0.2c-0.1-0.1,0-0.1,0.7-0.3c1.1-0.3,1.2-0.7,0.3-1.1c-0.3-0.1-0.7-0.2-1.7-0.4c-1.1-0.2-2-0.6-2.9-0.9
		c-0.4-0.1-0.8-0.3-1-0.3c-0.4-0.1-0.9,0.1-1.9,0.7c-0.4,0.2-0.9,0.6-1,0.6s0.2-0.3,0.4-0.8c0.7-0.9,0.8-1.2,0.8-1.4
		S9,34.7,8.5,34.1c-0.6-0.6-0.8-0.8-1.1-0.7c-0.1,0-0.2,0-0.3,0C7,33.3,7,33.3,6.6,32.7c-0.2-0.4-0.4-0.8-0.8-1S5.3,31.2,5.4,31
		c0-0.2,0-0.2-0.1-0.3c-0.1-0.1-0.4-0.4-0.9-0.9C3.9,28.3,3.5,28,3.5,28s-0.1,0-0.3,0c-0.6-0.1-1.4,0.2-1.6,0.6
		c-0.1,0.3,0.9,2.9,1.6,4c0.1,0.2,0.3,0.6,0.4,0.8c0.3,0.4,0.4,0.8,0.6,1.4c0.1,0.6,0.3,0.9,0.7,0.9c0.1,0,0.2,0.1,0.2,0.1
		c0.1,0.1,0,0.2-0.1,0.8C5,37,5,37.5,5.2,38c0.6,1.3,0.8,2.1,1,3.6C6.4,43,6.6,43.7,7,44c0.1,0.1,0.3,0.2,0.6,0.3l0.3,0.2L8,44.8
		c0,0.2,0,0.4,0,0.9c-0.1,0.9-0.1,1.4,0.2,1.8c0.3,0.3,0.7,0.3,1,0c0.2-0.2,0.3-0.2,0.2,0c-0.3,0.8-0.3,1.4-0.2,2.2
		c0.1,0.6,0.2,0.9,0.6,1.1c0.6,0.6,0.9,1,1.3,2.4c0.2,0.4,0.4,1.1,0.6,1.4c0.2,0.6,0.3,0.7,0.8,1.2c0.4,0.6,0.6,0.7,0.9,0.8
		c0.3,0.2,0.3,0.2,0.6,0.6c0.1,0.2,0.3,0.6,0.4,0.8c0.2,0.6,0.6,1,0.9,1.2c0.4,0.3,0.9,0.6,1.1,0.3c0.2-0.1,0.7-0.7,1-1.4
		c0.2-0.3,0.4-0.8,0.4-0.9c0.1-0.2,0.3-0.3,0.3-0.3c0.1,0.1-0.2,0.8-0.7,1.6c-0.4,0.9-0.6,1.6-0.4,2.1c0,0.2,0.1,0.3,0.3,0.4
		c0.2,0.2,0.4,0.3,0.8,0.3c0.4,0,0.6-0.1,1.3-0.8l0.8-0.7l-0.3,0.7c-0.8,1.6-0.7,2.1,0.4,2.7c0.4,0.2,1,0.3,1.3,0.3
		c0.2,0,0.3,0,0.7-0.3c0.3-0.3,0.8-0.8,1.3-1.4c0-0.1-0.1,0.2-0.2,0.7c-0.4,1.1-0.4,1.3-0.1,1.8c0.4,0.6,2.1,1.3,2.8,1.2
		c0.1,0,0.3-0.1,0.6-0.1c0.4-0.1,0.4-0.1,0.4,0.4c0,0.4,0.1,0.7,0.4,0.9c0.4,0.3,1.2,0.7,1.7,0.7c0.9,0.1,1.6-0.3,2.3-1.7
		c0.2-0.3,1-1.8,1.3-2.3c0.2-0.4,0.1-0.1-0.3,1.1c-1,2.4-1.1,3.1-0.8,3.5c0.2,0.2,0.7,0.2,2.1-0.1c0.9-0.2,1.2-0.3,1.3-0.2
		c0,0,0,0.2,0,0.3c-0.1,0.6,0.1,0.9,0.4,0.9s0.6,0,1.1-0.2c0.7-0.2,1.7-1.1,2.4-2c0.2-0.2,0.2-0.1,0,0.3S39,67.7,39,67.8
		c0.1,0.1,1-0.1,2.7-0.7c1.6-0.4,2-0.7,2.4-1.1c0.4-0.3,0.4-0.3,0.7-0.8c0.1-0.2,0.4-0.7,0.6-1c0.2-0.3,0.3-0.6,0.3-0.6
		s-0.1,0.4-0.2,0.9c-0.1,0.4-0.2,1.1-0.3,1.3v0.4h0.2c0.2,0,1.7-0.3,2.8-0.7c1.8-0.6,2.9-0.9,3.9-1.1c0.8-0.1,1.1-0.3,1.6-0.7
		c0.2-0.2,0.6-0.4,0.6-0.4c0.1,0,0.4-0.1,0.8,0c0.9,0.1,2.7-0.2,3.3-0.6c0.3-0.1,0.6-0.3,0.9-1c0.2,0,0.3-0.2,0.3-0.2
		s0.1,0.1,0.1,0.2c0.1,0.7,0.7,0.8,2.7,0.2c1.4-0.3,2.2-0.6,2.7-0.9c0.4-0.2,0.9-0.7,1-0.9C66.1,59.9,65.8,59.5,65.5,59.4z
		 M39.7,53.6c0.1,1.1-0.2,2.9-0.4,2.9c-0.3,0-0.2-2.7,0.1-3.5C39.5,52.7,39.6,52.9,39.7,53.6z M30,60.9c-0.3,1-1.6,3.7-1.9,3.9
		C28,65,28,64.8,28,64.4c0-0.3,0.1-0.7,0.3-1.1c0.6-1.3,1.4-2.9,1.7-2.9C30.1,60.4,30.1,60.6,30,60.9z M15.5,51.2
		c0,0.2-0.1,0.2-0.3,0.3c-0.3,0-0.3-0.2-0.1-0.6c0.1-0.2,0.2-0.2,0.3,0C15.5,50.9,15.5,51,15.5,51.2z"/>
</g>
<path d="M29.4,99.8c1.5-2.5,1.7-2.8,3.3-5.4c1.2-1.9,2.4-3.8,3.7-5.9c0.1,0.6,0.2,0.9,0.2,1.2c0.4,4.1,0.6,6,0.9,10.1
	c2.6,0.1,3.7,0,9,0c0.7-3.2,2.5-7.8,3.2-11c0.5-2.2,0.4-4.5,0.1-6.7c-0.3-4.8-1.9-8.6-3.9-9.6c-0.1-0.2-0.3-0.4-0.4-0.5
	c-0.5-0.6-1-1.1-1.6-1.6l0,0c-0.9-0.9-1.9-1.7-2.8-2.7c-1.3-1.3-2.9-2.4-3.1-4.5c-0.1-1.2,0.5-2.4,1.8-2.8c0.1,0.7-1.4,1.1-0.5,2
	c0.5-0.9,1.1-1.8,1.8-3c-0.1,1.1-0.2,2-0.3,2.9c1.2-1.2,0.8-3,1.4-4.4c0.1,0,0.2,0,0.3,0c-0.1,1.2-0.2,2.3-0.3,3.5
	c0.1,0,0.2,0,0.3,0c0.2-1.8,0.3-3.5,0.5-5.5c0.1,0.5,0.1,0.6,0.2,0.8c1-0.9,1.2-1.8,1-3c-0.2-0.9-0.3-1.8-0.4-2.7
	c0-0.7,0.1-1.4,0.2-2.1c0.1,0,0.2,0,0.3,0c0,0.4,0.1,0.8,0.1,1.3c0.2-0.4,0.3-0.8,0.3-1.2c0.1-1.1,0.1-2.2,0.4-3.3
	c1.2-4.2,2.6-8.4,3.8-12.6c0.6-2.1,1.1-4.2,1.6-6.3c0.3-1.1,0.5-2.2,0.6-3.4c0.1-1.5-0.1-3.1-0.2-4.6c-0.2-4.1-1.1-8.2-0.2-12.3
	c0.1-0.3-0.1-0.6,0-0.8c0.1-0.7,0.2-1.4,0.4-2.1c0.2-0.8,0.7-1.8,0.1-2.5c-0.1-0.1-0.8,1.4-1.4,2.7c-0.3,0-0.3-0.1-0.5-0.2
	C49.6,2.2,49.7,1.7,50,0c-0.8,0-0.7,0-1.5,0c-0.6,0-0.7,0.9-1.1,1.4c-0.1,0-0.1,0-0.1-0.1c0.3-0.7,0.2-0.6,0.5-1.3
	c-0.5,0-0.5,0-0.9,0c-0.8,0.6-0.6,0.4-1.2,1.2c-0.2,0.4-0.3,1.1-0.3,1.7c0,1.4-0.2,2.9,0.7,4c1,1.2,1.2,2.5,1.1,3.9
	c-0.4,5.3-0.7,10.5-1.2,15.8c-0.1,1.2-0.9,2.4-1.4,3.6c-0.1,0-0.2-0.1-0.3-0.1c0.1-0.5,0.3-0.9,0.4-1.4c0-0.2,0-0.6-0.2-0.7
	c-0.7-0.8-1.4-1.7-2.3-2.4c-0.5-0.5-1.2-0.8-1.9-1c-0.6-0.2-1.2-0.2-1.8-0.4c-2.7-0.9-5.3-0.1-6.8,2.4c-0.5,0.8-0.9,1.6-1.2,2.4
	c-0.4,1.1-1,1.9-2,2.5c-1.2,0.7-1.8,1.8-2.2,3.4c0.4-0.3,0.7-0.5,1-0.7c-0.4,1.2-0.7,2.2-1.1,3.5c-0.4-0.7-0.7-1.3-0.9-1.9
	c-0.9-2.5-1.8-5.1-2.7-7.6c-0.4-1-0.2-1.5,0.7-2.1c3.7-2.4,7.6-4.4,11.8-5.6c0.4-0.1,0.9-0.2,1.2,0c2,1.1,4.1,0.9,6.2,0.9
	c0.3,0,0.6-0.1,1.2-0.1c-1-1.5-2.5-0.7-3.8-1.4c0.6-0.2,0.9-0.3,1.2-0.4c0.8-0.2,1.5-0.2,2.3-0.4c0.3-0.1,0.6-0.6,0.6-0.9
	c0.1-0.3-0.1-0.7-0.3-1c-0.5-0.6-0.4-1.9-1.6-1.7c0.4-0.1,1.5-0.5,1.3-0.7c-0.3-0.4-0.5-0.3-0.6-0.3c-0.3,0-0.6,0-0.8,0
	c-2.4,0.1-4.6,0.9-6.6,2c-1,0.6-2.1,1.1-3.3,1.3c-4.7,0.8-9,2.9-13.4,4.5c-1.7,0.6-1.8,0.9-1.5,2.7c0.9,5.5,2.4,10.8,4.4,15.9
	c1.4,3.6,1.4,2.9-1.1,5.5c-0.9,0.9-1.4,1.8-1.6,3.1c-0.3,1.9-0.6,3.7-0.9,5.5c-0.1,0.6-0.4,1.1-1.2,0.8c0.5,0.9,1,0.8,1.7,0.2
	c-0.2,0.7-0.4,1.5-0.8,1.7c-0.9,0.3-1.2,0.8-1.2,1.8c0.3-0.9,0.8-1.6,2-1.3c-0.2,0.5-0.4,1-0.6,1.4s-0.4,0.9-0.6,1.3h0.1
	c0.4-0.5,0.9-1.1,1.4-1.7c0.3,0.8,0.1,1.7,0.9,1.6c-0.1-0.5-0.3-1-0.2-1.4c0-0.3,0.4-0.5,0.6-0.7c0-0.2-0.1-0.5-0.2-0.8
	c1.2,0.3,1.5,1,1.5,2c0,1.6,0.3,3.3,0.5,4.9c0,0.2,0.1,0.6,0.2,0.6c2.1,0.7,3,16.5,2.5,17.2c-0.3,0.5-0.1,1.2-0.3,1.7
	c-0.8,2.3-1.7,4.6-2.6,6.9c-2.3,5.9-2.1,9.5-2.6,8.7"/>
<rect y="99.1" width="70" height="0.9"/>
</svg>
