<?xml version="1.0" encoding="utf-8"?>
<!-- Generator: Adobe Illustrator 23.1.0, SVG Export Plug-In . SVG Version: 6.00 Build 0)  -->
<svg version="1.1" id="Слой_1" xmlns="http://www.w3.org/2000/svg" xmlns:xlink="http://www.w3.org/1999/xlink" x="0px" y="0px"
	 viewBox="0 0 70 100" style="enable-background:new 0 0 70 100;" xml:space="preserve">
<style type="text/css">
	.st0{fill:#FF00FF;}
	.st1{fill:#D4145A;}
	.st2{fill:#FFFFFF;}
</style>
<rect class="st0" width="70" height="100"/>
<g>
	<path class="st1" d="M51.8,32.9c-0.6-0.5-1.1-0.9-1.3-0.8c-0.2,0-0.3,0-0.3-0.6c0-0.5-0.2-0.9-0.6-0.9c-0.4-0.1-0.6,0-1.2,0.5
		c-0.6,0.5-0.8,0.6-0.9,0.4c-0.2-0.2,0.1-0.5,0.4-0.6c0.2,0,0.7-0.5,0.7-0.8c0-0.2-0.1-0.3-0.6-0.5s-1.2-0.2-1.4-0.1s-0.4,0-0.7-0.1
		c-0.7-0.5-0.7-0.5-1.4,0c-0.7,0.6-1.9,1.2-2,1c0,0,0-0.2,0-0.3c0.1-0.3,0-0.5-0.3-0.7s-0.4-0.5-0.4-0.9c0-0.6-0.1-0.8-0.4-0.8
		c-0.2,0-0.5,0.1-0.7,0.5c-0.3,0.5-0.3,0.5-0.2-0.3c0.2-1,0-1.7-0.4-2.3c-0.5-0.6-1-0.8-2-0.6c-0.3,0-0.4,0-0.5-0.3
		s-0.4-0.6-0.7-0.5c-0.1,0-0.2,0.1-0.3,0.3c-0.2,0.4-0.2,0.4-0.9-0.4c-0.6-0.6-0.6-0.7-0.8-0.8c-0.3-0.1-0.8-0.2-1.5-0.2
		s-0.8,0-1,0.2s-0.3,0.4-0.5,1c-0.1,0.2-0.1,0.4-0.1,0.3c0,0,0-0.2-0.1-0.4c0-0.5-0.1-0.7-0.2-0.9c-0.1-0.1-0.3-0.1-0.4,0.1
		c0,0.1-0.1,0.1-0.1,0.2c-0.1,0-0.3,0-0.4-0.2c-0.3-0.4-1-0.4-3.2-0.2c-1.5,0.2-1.9,0.3-2.1,0.7c-0.1,0.2-0.1,0.6-0.1,1.1
		c0,0.8-0.1,1.4-0.4,1.3c-0.2,0-0.3-0.4-0.3-1.2c-0.1-0.7-0.3-1.3-0.6-1.6c-0.2-0.2-0.4-0.2-0.6,0s-0.2,0.2-0.6,0.1
		c-0.2-0.1-0.4,0-0.7,0.2c-0.3,0.2-0.7,0.3-1.2,0.2c-1.2-0.2-2-0.2-2.8,0.2c-0.2,0.1-0.3,0.2-0.6,0.4c-0.5,0.4-0.6,0.5-1.5,0.1
		c-0.8-0.3-1.3-0.4-1.9-0.5c-0.7-0.1-0.9,0-1.2,0.3s-0.6,0.5-1.3,0.6c-1.1,0.3-1.9,0.3-2.5,0c-0.6-0.2-1-0.2-1.7,0.2
		c-0.9,0.5-1.5,1-1.6,1.3s-0.1,0.6,0,0.7C6,27.8,6.3,27.8,7.5,28c0.6,0.1,1.2,0.2,1.5,0.2c0.4,0.1,0.4,0.1,0.6,0.4
		c0.3,0.4,0.4,0.4,1,0.3s0.6-0.1,0.7,0.5c0.1,0.6,0.3,0.8,1.9,1.5c0.5,0.2,1,0.4,1,0.4s0.2-0.3,0.3-0.7c0.5-1.1,0.8-1.3,1.1-1.1
		c0.2,0.2,0.3,0.5,0.4,1.3c0.1,0.6,0.2,1.1,0.4,1.3c0.1,0.1,0.2,0.1,0.3,0.1c0.2,0,0.2,0,0.4-0.2c0.4-0.3,0.5-0.3,0.7,0.2
		c0.3,0.7,0.9,0.8,1.6,0.3c0.4-0.3,0.7-0.7,1-1.5c0.4-0.9,0.5-1,0.5-0.4c0,0.4,0,0.8-0.2,1.2c-0.2,0.4-0.2,0.8,0,1.1
		c0.2,0.4,0.7,0.7,1.3,0.8c0.5,0,0.6,0,0.9-0.9c0.4-0.9,0.6-1.5,0.7-1.7c0.1-0.1,0.1-0.1,0.1,0s0,0.4,0,1.1
		c-0.1,1.1-0.1,1.3,0.1,1.5s0.4,0.3,1.5,0.5s1.3,0.4,2.2,1.2c0.9,0.9,1,0.9,1.5,0.7c0.6-0.2,0.6-0.2,0.8,0.6
		c0.1,0.7,0.3,0.9,0.5,0.9s0.2,0,0.5-0.2s0.7-0.6,1.1-1.3c0.1-0.2,0.3-0.5,0.3-0.5s0.1-0.1,0.1,0c0,0-0.1,0.4-0.3,0.8
		c-0.6,1.4-0.8,2.2-0.6,3c0.1,0.3,0.1,0.4,0.3,0.7c0.2,0.2,0.3,0.3,0.5,0.4c0.4,0.3,0.8,0.7,1,1.4c0.2,0.6,0.5,1,0.8,1.1
		c0.6,0.3,0.8,0.1,1.8-1.7c0.8-1.4,1.2-2.1,1.5-2.6c0.2-0.2,0.4-0.4,0.5-0.4c0.2,0.1,0.1,0.4-0.8,2.2c-1.1,2.5-1.3,2.8-1,3.1
		c0.5,0.6,1.5,0.3,2.4-0.6c0.3-0.3,0.9-1,1.1-1.3c0,0-0.1,0.2-0.2,0.5c-0.4,0.9-0.4,1.3,0,1.7c0.5,0.6,1.1,0.2,2-1.4
		c0.6-1.1,1.4-2.4,1.7-2.7c0.1-0.1,0.1-0.1-0.1,0.4c-0.1,0.2-1.6,2.9-1.9,3.5c0,0.1,0.1,0.1,0.9,0.4c2,0.6,2.2,0.5,3.6-1.2
		c0.8-1,1.1-1.4,1.2-1.3c0.1,0.1-0.4,1.1-1.1,2.3c-0.3,0.6-0.6,1.1-0.7,1.2c-0.1,0.1,0,0.1,0.6,0.3c1.2,0.4,1.7,0.5,2.3,0.4
		c0.7-0.1,1.1-0.3,1.4-0.7c0.2-0.2,0.2-0.3,0.5-0.5c0.4-0.2,1.5-0.7,1.6-0.6c0,0-0.2,0.2-1,0.9c-1.1,0.9-1.1,0.9-1.2,1.2
		c-0.2,0.3-0.2,0.7-0.1,1c0.2,0.5,1.1,1.2,1.8,1.5c0.5,0.2,0.9,0.3,1.4,0.1c0.2-0.1,0.4-0.1,0.5,0c0,0,0,0.1-0.1,0.3
		c-0.2,0.5-0.2,0.7,0.2,0.9c0.5,0.2,0.7,0.4,1.3,1c0.5,0.5,0.6,0.6,0.8,0.7c0.5,0.2,1.1,0.2,2.2-0.2c0.6-0.2,1.1-0.3,1.1-0.3
		c0.1,0.1-0.2,0.4-0.5,0.4c-0.5,0.1-0.6,0.5-0.4,0.8c0.2,0.2,0.4,0.3,1.9,1.1c0.7,0.3,1.4,0.7,1.5,0.8c0.4,0.2,0.7,0.6,0.8,0.8
		c0.1,0.4,0.5,0.8,1.3,1.3c0.7,0.4,1.4,0.5,1.6,0.3c0.3-0.2,0.4-0.9,0.3-1.6c-0.1-0.7-0.2-1.1-0.6-1.8c-0.2-0.3-0.5-0.9-0.7-1.3
		c-0.3-0.7-0.3-0.7-0.9-1.4c-0.7-0.8-0.7-1-0.7-1.4s0-0.5-0.3-0.8c-0.2-0.2-0.3-0.4-0.2-0.8c0.1-0.6,0-0.7-0.7-0.9
		c-0.5-0.2-0.6-0.3-0.5-0.6s0.1-0.6,0.1-0.8c0-0.3-0.2-0.5-0.7-1c-0.2-0.2-0.2-0.2-0.3-0.6c-0.2-0.7-0.5-1.1-1.4-2.4
		c-0.7-1-1.1-1.5-1.4-2.1c-0.1-0.2-0.3-0.5-0.4-0.6c-0.2-0.2-0.2-0.2-0.8-0.4c-0.3-0.1-0.3-0.2-0.2-0.5c0.1-0.2,0.1-0.4,0-0.6
		c-0.1-0.3-0.4-0.7-0.9-1.2s-0.7-0.7-0.9-0.7c-0.4-0.1-1.2,0.3-1.7,0.7c-0.3,0.3-0.5,0.4-0.7,0.4c-0.1,0-0.1,0-0.1-0.1
		s0.1-0.2,0.6-0.6c1-0.7,1.3-1,1.3-1.2C52.9,34.1,52.5,33.5,51.8,32.9z M36.5,26.9c-0.1,0.2-0.3,0.3-0.3,0.3s0.1-0.4,0.2-0.5
		C36.5,26.5,36.6,26.6,36.5,26.9z M34.8,37.7c-0.1,0.4-0.4,0.8-0.5,0.7c0-0.1,0.3-0.7,0.4-0.9C34.9,37.4,34.9,37.5,34.8,37.7z
		 M20.8,28.8c0,0.2,0,0.4-0.1,0.4s-0.2-0.1-0.3-0.4c-0.1-0.3-0.1-0.4,0-0.5C20.5,28.2,20.8,28.6,20.8,28.8z"/>
	<path class="st1" d="M62.4,57.9c-0.7-0.3-3-0.5-3.9-0.4c-0.2,0-0.3,0.1-0.4,0.2c-0.1,0.2-0.2,0.1-0.7-0.4c-0.7-0.8-1.5-1.3-2.5-1.4
		c-0.3,0-0.5-0.1-0.6-0.1s-0.2-0.2-0.2-0.3c-0.3-0.6-1.4-1.1-2-0.9c-0.3,0.1-0.5,0-0.8-0.5c-0.4-0.5-1-0.9-1.6-1
		c-0.4-0.1-0.6,0-0.8,0.4s-0.4,0.3-0.7-0.4c-0.2-0.5-0.3-0.6-0.6-0.9c-0.5-0.3-1.6-0.7-2-0.7c-0.3,0-0.5,0.2-0.6,0.5
		c-0.1,0.2-0.1,0.8-0.1,1.4c0,0.1,0,0.3,0,0.3c-0.1,0-0.2-0.8-0.2-1.1c0-0.4,0-0.5-0.2-0.6s-0.5-0.1-0.7,0.1
		c-0.1,0.1-0.2,0.1-0.3,0.1s-0.1-0.2-0.2-0.3c-0.2-0.4-0.3-0.6-0.5-0.6c-0.1,0-0.2,0.1-0.5,0.3c-0.3,0.3-0.4,0.3-0.5,0.3
		s-0.3-0.1-0.5-0.2c-0.6-0.4-0.9-0.5-1.4-0.4s-0.6,0.1-0.8-0.4c-0.2-0.3-0.5-0.6-0.9-0.8c-0.6-0.3-1.4-0.3-1.6,0
		c-0.1,0-0.2,0.3-0.3,0.6c-0.4,1.1-0.7,2-0.8,2c0,0,0-0.3,0.1-0.7c0.2-0.9,0.2-1.5,0.2-1.7c-0.1-0.2-0.2-0.4-0.4-0.5
		s-1.2-0.6-1.5-0.7L33.8,49l-0.6,1.7c-0.3,1-0.6,1.8-0.7,1.9C32.4,52.8,32.2,53,32,53c-0.3,0-0.3-0.3,0.2-1.4c0.7-1.5,0.8-2,0.9-2.6
		c0-0.4,0-0.7-0.2-0.9c-0.1-0.1-0.2-0.2-0.6-0.2c-0.2,0-0.6-0.1-0.7-0.2c-0.3-0.1-0.7,0-1.1,0.2c-0.2,0.1-0.4,0.2-0.4,0.2
		c-0.1,0,0-0.1,0.1-0.4c0.3-0.5,0.2-0.8-0.4-1.1c-0.7-0.4-1.6-0.4-2.4,0.1c-0.1,0.1-0.6,0.4-1,0.8c-0.7,0.6-0.9,0.7-1,0.6
		c-0.1-0.1,0-0.3,0.2-0.6c0.1-0.1,0.5-0.5,1.2-1.1c0.9-0.8,1-0.9,1.1-1c0.2-0.5-0.4-1.2-1.8-1.9c-1-0.5-1.3-0.8-1.4-1.1
		s-0.5-0.6-1.2-0.8c-0.5-0.1-0.9-0.2-1.3,0c-0.2,0.1-0.4,0.1-0.4,0.1s0-0.1,0-0.2c0-0.1,0.1-0.2,0.1-0.3c0-0.4-1.1-1-2.5-1.2
		c-0.6-0.1-1-0.1-1.2,0.1c-0.1,0.1-0.2,0.1-0.2,0.1c-0.1,0-0.5-0.1-0.5-0.2c-0.1-0.1,0-0.1,0.6-0.3c1-0.3,1.1-0.6,0.3-1
		c-0.3-0.1-0.6-0.2-1.5-0.4c-1-0.2-1.8-0.5-2.6-0.8c-0.4-0.1-0.7-0.3-0.9-0.3c-0.4-0.1-0.8,0.1-1.7,0.6c-0.4,0.2-0.8,0.5-0.9,0.5
		s0.2-0.3,0.4-0.7c0.6-0.8,0.7-1.1,0.7-1.3s-0.3-0.6-0.7-1.1c-0.5-0.5-0.7-0.7-1-0.6c-0.1,0-0.2,0-0.3,0c-0.1-0.1-0.1-0.1-0.4-0.7
		c-0.2-0.4-0.4-0.7-0.7-0.9s-0.5-0.4-0.4-0.6c0-0.2,0-0.2-0.1-0.3c-0.1-0.1-0.4-0.4-0.8-0.8C7,30,6.7,29.7,6.7,29.7s-0.1,0-0.3,0
		c-0.5-0.1-1.3,0.2-1.4,0.5s0.8,2.6,1.4,3.6c0.1,0.2,0.3,0.5,0.4,0.7c0.3,0.4,0.4,0.7,0.5,1.3c0.1,0.5,0.3,0.8,0.6,0.8
		c0.1,0,0.2,0.1,0.2,0.1c0.1,0.1,0,0.2-0.1,0.7c0,0.4,0,0.8,0.2,1.3c0.5,1.2,0.7,1.9,0.9,3.2s0.4,1.9,0.7,2.2
		c0.1,0.1,0.3,0.2,0.5,0.3l0.3,0.2l0.1,0.2c0,0.2,0,0.4,0,0.8c-0.1,0.8-0.1,1.3,0.2,1.6s0.6,0.3,0.9,0c0.2-0.2,0.3-0.2,0.2,0
		c-0.3,0.7-0.3,1.3-0.2,2c0.1,0.5,0.2,0.8,0.5,1c0.5,0.5,0.8,0.9,1.2,2.2c0.2,0.4,0.4,1,0.5,1.3c0.2,0.5,0.3,0.6,0.7,1.1
		s0.5,0.6,0.8,0.7c0.3,0.2,0.3,0.2,0.5,0.5c0.1,0.2,0.3,0.5,0.4,0.7c0.2,0.5,0.5,0.9,0.8,1.1c0.4,0.3,0.8,0.5,1,0.3
		c0.2-0.1,0.6-0.6,0.9-1.3c0.2-0.3,0.4-0.7,0.4-0.8c0.1-0.2,0.3-0.3,0.3-0.3c0.1,0.1-0.2,0.7-0.6,1.4c-0.4,0.8-0.5,1.4-0.4,1.9
		c0,0.2,0.1,0.3,0.3,0.4c0.2,0.2,0.4,0.3,0.7,0.3c0.4,0,0.5-0.1,1.2-0.7l0.7-0.6L21.4,59c-0.7,1.4-0.6,1.9,0.4,2.4
		c0.4,0.2,0.9,0.3,1.2,0.3c0.2,0,0.3,0,0.6-0.3c0.3-0.3,0.7-0.7,1.2-1.3c0-0.1-0.1,0.2-0.2,0.6c-0.4,1-0.4,1.2-0.1,1.6
		c0.4,0.5,1.9,1.2,2.5,1.1c0.1,0,0.3-0.1,0.5-0.1c0.4-0.1,0.4-0.1,0.4,0.4c0,0.4,0.1,0.6,0.4,0.8c0.4,0.3,1.1,0.6,1.5,0.6
		c0.8,0.1,1.4-0.3,2.1-1.5c0.2-0.3,0.9-1.6,1.2-2.1c0.2-0.4,0.1-0.1-0.3,1c-0.9,2.2-1,2.8-0.7,3.1c0.2,0.2,0.6,0.2,1.9-0.1
		c0.8-0.2,1.1-0.3,1.2-0.2c0,0,0,0.2,0,0.3c-0.1,0.5,0.1,0.8,0.4,0.8c0.3,0,0.5,0,1-0.2c0.6-0.2,1.5-1,2.2-1.8
		c0.2-0.2,0.2-0.1,0,0.3s-0.2,0.7-0.2,0.8c0.1,0.1,0.9-0.1,2.4-0.6c1.4-0.4,1.8-0.6,2.2-1c0.4-0.3,0.4-0.3,0.6-0.7
		c0.1-0.2,0.4-0.6,0.5-0.9c0.2-0.3,0.3-0.5,0.3-0.5s-0.1,0.4-0.2,0.8c-0.1,0.4-0.2,1-0.3,1.2v0.4h0.2c0.2,0,1.5-0.3,2.5-0.6
		c1.6-0.5,2.6-0.8,3.5-1c0.7-0.1,1-0.3,1.4-0.6c0.2-0.2,0.5-0.4,0.5-0.4c0.1,0,0.4-0.1,0.7,0c0.8,0.1,2.4-0.2,3-0.5
		c0.3-0.1,0.5-0.3,0.8-0.9c0.2,0,0.3-0.2,0.3-0.2s0.1,0.1,0.1,0.2c0.1,0.6,0.6,0.7,2.4,0.2c1.3-0.3,2-0.5,2.4-0.8
		c0.4-0.2,0.8-0.6,0.9-0.8C62.9,58.4,62.7,58,62.4,57.9z M39.2,52.7c0.1,1-0.2,2.6-0.4,2.6c-0.3,0-0.2-2.4,0.1-3.1
		C39,51.9,39.1,52.1,39.2,52.7z M30.5,59.3c-0.3,0.9-1.4,3.3-1.7,3.5c-0.1,0.1-0.1,0-0.1-0.4c0-0.3,0.1-0.6,0.3-1
		c0.5-1.2,1.3-2.6,1.5-2.6C30.6,58.8,30.6,59,30.5,59.3z M17.5,50.5c0,0.2-0.1,0.2-0.3,0.3c-0.3,0-0.3-0.2-0.1-0.5
		c0.1-0.2,0.2-0.2,0.3,0C17.5,50.3,17.5,50.4,17.5,50.5z"/>
</g>
<path d="M29.4,99.8c1.5-2.5,1.7-2.8,3.3-5.4c1.2-1.9,2.4-3.8,3.7-5.9c0.1,0.6,0.2,0.9,0.2,1.2c0.4,4.1,0.6,6,0.9,10.1
	c2.6,0.1,3.7,0,9,0c0.7-3.2,2.5-7.8,3.2-11c0.5-2.2,0.4-4.5,0.1-6.7c-0.3-4.8-1.9-8.6-3.9-9.6c-0.1-0.2-0.3-0.4-0.4-0.5
	c-0.5-0.6-1-1.1-1.6-1.6l0,0c-0.9-0.9-1.9-1.7-2.8-2.7c-1.3-1.3-2.9-2.4-3.1-4.5c-0.1-1.2,0.5-2.4,1.8-2.8c0.1,0.7-1.4,1.1-0.5,2
	c0.5-0.9,1.1-1.8,1.8-3c-0.1,1.1-0.2,2-0.3,2.9c1.2-1.2,0.8-3,1.4-4.4c0.1,0,0.2,0,0.3,0c-0.1,1.2-0.2,2.3-0.3,3.5
	c0.1,0,0.2,0,0.3,0c0.2-1.8,0.3-3.5,0.5-5.5c0.1,0.5,0.1,0.6,0.2,0.8c1-0.9,1.2-1.8,1-3c-0.2-0.9-0.3-1.8-0.4-2.7
	c0-0.7,0.1-1.4,0.2-2.1c0.1,0,0.2,0,0.3,0c0,0.4,0.1,0.8,0.1,1.3c0.2-0.4,0.3-0.8,0.3-1.2c0.1-1.1,0.1-2.2,0.4-3.3
	c1.2-4.2,2.6-8.4,3.8-12.6c0.6-2.1,1.1-4.2,1.6-6.3c0.3-1.1,0.5-2.2,0.6-3.4c0.1-1.5-0.1-3.1-0.2-4.6c-0.2-4.1-1.1-8.2-0.2-12.3
	c0.1-0.3-0.1-0.6,0-0.8c0.1-0.7,0.2-1.4,0.4-2.1c0.2-0.8,0.7-1.8,0.1-2.5c-0.1-0.1-0.8,1.4-1.4,2.7c-0.3,0-0.3-0.1-0.5-0.2
	c0.3-1.4,0.4-1.9,0.7-3.6c-0.8,0-0.7,0-1.5,0c-0.6,0-0.7,0.9-1.1,1.4c-0.1,0-0.1,0-0.1-0.1c0.3-0.7,0.2-0.6,0.5-1.3
	c-0.5,0-0.5,0-0.9,0c-0.8,0.6-0.6,0.4-1.2,1.2c-0.2,0.4-0.3,1.1-0.3,1.7c0,1.4-0.2,2.9,0.7,4c1,1.2,1.2,2.5,1.1,3.9
	c-0.4,5.3-0.7,10.5-1.2,15.8c-0.1,1.2-0.9,2.4-1.4,3.6c-0.1,0-0.2-0.1-0.3-0.1c0.1-0.5,0.3-0.9,0.4-1.4c0-0.2,0-0.6-0.2-0.7
	c-0.7-0.8-1.4-1.7-2.3-2.4c-0.5-0.5-1.2-0.8-1.9-1c-0.6-0.2-1.2-0.2-1.8-0.4c-2.7-0.9-5.3-0.1-6.8,2.4c-0.5,0.8-0.9,1.6-1.2,2.4
	c-0.4,1.1-1,1.9-2,2.5c-1.2,0.7-1.8,1.8-2.2,3.4c0.4-0.3,0.7-0.5,1-0.7c-0.4,1.2-0.7,2.2-1.1,3.5c-0.4-0.7-0.7-1.3-0.9-1.9
	c-0.9-2.5-1.8-5.1-2.7-7.6c-0.4-1-0.2-1.5,0.7-2.1c3.7-2.4,7.6-4.4,11.8-5.6c0.4-0.1,0.9-0.2,1.2,0c2,1.1,4.1,0.9,6.2,0.9
	c0.3,0,0.6-0.1,1.2-0.1c-1-1.5-2.5-0.7-3.8-1.4c0.6-0.2,0.9-0.3,1.2-0.4c0.8-0.2,1.5-0.2,2.3-0.4c0.3-0.1,0.6-0.6,0.6-0.9
	c0.1-0.3-0.1-0.7-0.3-1c-0.5-0.6-0.4-1.9-1.6-1.7c0.4-0.1,1.5-0.5,1.3-0.7c-0.3-0.4-0.5-0.3-0.6-0.3c-0.3,0-0.6,0-0.8,0
	c-2.4,0.1-4.6,0.9-6.6,2c-1,0.6-2.1,1.1-3.3,1.3c-4.7,0.8-9,2.9-13.4,4.5c-1.7,0.6-1.8,0.9-1.5,2.7c0.9,5.5,2.4,10.8,4.4,15.9
	c1.4,3.6,1.4,2.9-1.1,5.5c-0.9,0.9-1.4,1.8-1.6,3.1c-0.3,1.9-0.6,3.7-0.9,5.5c-0.1,0.6-0.4,1.1-1.2,0.8c0.5,0.9,1,0.8,1.7,0.2
	c-0.2,0.7-0.4,1.5-0.8,1.7c-0.9,0.3-1.2,0.8-1.2,1.8c0.3-0.9,0.8-1.6,2-1.3c-0.2,0.5-0.4,1-0.6,1.4s-0.4,0.9-0.6,1.3h0.1
	c0.4-0.5,0.9-1.1,1.4-1.7c0.3,0.8,0.1,1.7,0.9,1.6c-0.1-0.5-0.3-1-0.2-1.4c0-0.3,0.4-0.5,0.6-0.7c0-0.2-0.1-0.5-0.2-0.8
	c1.2,0.3,1.5,1,1.5,2c0,1.6,0.3,3.3,0.5,4.9c0,0.2,0.1,0.6,0.2,0.6c2.1,0.7,3,16.5,2.5,17.2c-0.3,0.5-0.1,1.2-0.3,1.7
	c-0.8,2.3-1.7,4.6-2.6,6.9c-2.3,5.9-2.1,9.5-2.6,8.7"/>
<g transform="translate(0.000000,1189.000000) scale(0.100000,-0.100000)">
	<path class="st2" d="M104.8,11851.9c-0.1,0-0.5,0.2-0.9,0.3c-7.4,2.6-15.8,0.2-20.6-6.1c-2.2-2.8-3.8-7-4.4-10.9
		c-0.6-4.1-0.1-8.2,1.6-13.5c0.8-2.5,1.5-4.4,4.1-10.6c0.6-1.5,1.3-3.2,1.5-3.7c2.7-6.7,4.3-12,5.2-17.5l0.2-1.2l0.6-0.3l0.6-0.3
		l1.1,0.6c4.5,2.6,9.3,4.5,16,6.5c1.3,0.4,2.8,0.8,7,2c6.5,1.8,9.9,3,13,4.5c4.9,2.4,8.3,5.3,10.9,9.6c0.5,0.9,1.6,3.1,1.9,4
		c1.4,4,1.4,8.1,0.1,12s-3.8,7.1-7.4,9.5c-0.9,0.6-2.8,1.5-3.8,1.9c-3.7,1.3-7.4,1.4-11.1,0.3c-1.3-0.4-2.9-1-3.9-1.6
		c-0.2-0.1-0.5-0.3-0.5-0.2s-0.1,0.2-0.1,0.5c-0.2,1.2-0.6,2.9-1.1,4.1c-1.4,3.5-3.7,6.4-6.9,8.4
		C107.2,11850.7,105.3,11851.7,104.8,11851.9z"/>
</g>
<g transform="translate(0.000000,1189.000000) scale(0.100000,-0.100000)">
	<path class="st2" d="M44.5,11880.7c-0.1,0-0.4,0-0.6,0c-5.3,0.4-10.2-2.7-12.2-7.6c-0.9-2.2-1.2-5.2-0.9-7.8
		c0.4-2.8,1.4-5.3,3.4-8.4c0.9-1.5,1.8-2.6,4.5-6.1c0.7-0.9,1.4-1.8,1.6-2.1c2.9-3.9,4.9-7,6.4-10.4l0.3-0.7l0.5-0.1l0.5-0.1
		l0.6,0.6c2.5,2.5,5.2,4.6,9.2,7.1c0.8,0.5,1.7,1,4.2,2.5c3.9,2.3,5.9,3.7,7.6,5.2c2.8,2.4,4.4,4.9,5.4,8.1c0.2,0.7,0.5,2.3,0.5,2.9
		c0.2,2.9-0.5,5.5-2.1,7.8s-3.7,3.9-6.4,4.8c-0.7,0.2-2.1,0.5-2.8,0.5c-2.6,0.2-5-0.4-7.2-1.7c-0.8-0.5-1.7-1.2-2.3-1.8
		c-0.1-0.1-0.3-0.2-0.3-0.2s-0.1,0.1-0.2,0.3c-0.3,0.8-0.9,1.7-1.4,2.5c-1.5,2-3.5,3.5-5.9,4.2
		C46.4,11880.4,44.9,11880.7,44.5,11880.7z"/>
</g>
<g transform="translate(0.000000,1189.000000) scale(0.100000,-0.100000)">
	<path class="st2" d="M166.5,11829.8c-0.1,0-0.3,0-0.5-0.1c-3.8-0.7-6.7-3.7-7.3-7.5c-0.2-1.7,0.1-3.9,0.8-5.7
		c0.8-1.9,1.9-3.5,3.9-5.4c0.9-0.9,1.7-1.5,4.3-3.5c0.6-0.5,1.3-1,1.5-1.2c2.8-2.2,4.7-4.1,6.4-6.2l0.4-0.4h0.3h0.3l0.3,0.5
		c1.3,2.2,2.9,4.2,5.2,6.6c0.5,0.5,1,1,2.5,2.5c2.3,2.3,3.5,3.7,4.4,5c1.5,2.2,2.2,4.3,2.3,6.7c0,0.5-0.1,1.7-0.1,2.1
		c-0.4,2-1.4,3.8-2.9,5.1s-3.3,2.1-5.4,2.3c-0.5,0-1.6,0-2.1-0.1c-1.9-0.3-3.5-1.2-4.8-2.5c-0.5-0.5-1-1.1-1.3-1.6
		c-0.1-0.1-0.1-0.2-0.1-0.2s-0.1,0.1-0.2,0.2c-0.4,0.5-0.9,1.1-1.5,1.5c-1.4,1.1-3.1,1.8-4.9,1.9
		C167.9,11829.8,166.8,11829.8,166.5,11829.8z"/>
</g>
<g transform="translate(0.000000,1189.000000) scale(0.100000,-0.100000)">
	<path class="st2" d="M18.8,11802.3c-0.1-0.1-0.3-0.2-0.6-0.4c-4.6-3.3-6.6-9.3-4.9-14.8c0.8-2.4,2.6-5.1,4.7-7.1
		c2.2-2,4.9-3.4,8.7-4.6c1.8-0.6,3.3-0.9,8-1.9c1.1-0.2,2.4-0.5,2.8-0.6c5.1-1.2,8.9-2.4,12.5-4.1l0.8-0.4l0.4,0.2l0.4,0.2l0.1,0.9
		c0.3,3.8,1.1,7.4,2.7,12.2c0.3,0.9,0.7,2,1.7,5c1.6,4.6,2.3,7.1,2.7,9.6c0.6,3.9,0.2,7.1-1.2,10.5c-0.3,0.7-1.2,2.2-1.6,2.8
		c-1.8,2.5-4.2,4.2-7.1,5c-2.9,0.8-5.8,0.7-8.7-0.5c-0.7-0.3-2.1-1.1-2.7-1.5c-2.3-1.7-3.9-3.8-4.8-6.5c-0.3-0.9-0.6-2.1-0.6-3
		c0-0.2,0-0.4,0-0.4s-0.2,0.1-0.4,0.2c-0.8,0.4-2,0.8-2.9,1c-2.7,0.6-5.3,0.4-7.9-0.6C20.6,11803.2,19.2,11802.5,18.8,11802.3z"/>
</g>
<g transform="translate(0.000000,1189.000000) scale(0.100000,-0.100000)">
	<path class="st2" d="M99.6,11780.6c-0.2,0.1-0.8,0.3-1.4,0.5c-11.5,4.1-24.4,0.3-31.9-9.4c-3.3-4.3-5.9-10.8-6.7-16.9
		c-0.9-6.4-0.1-12.7,2.4-20.9c1.2-3.9,2.4-6.9,6.3-16.4c1-2.3,2-4.9,2.4-5.7c4.2-10.4,6.6-18.6,8-27l0.3-1.8l1-0.5l1-0.5l1.6,0.9
		c7,4,14.5,7,24.8,10.1c2,0.6,4.3,1.3,10.8,3.1c10,2.8,15.4,4.6,20.1,6.9c7.7,3.7,12.8,8.2,16.9,14.8c0.8,1.4,2.5,4.8,3,6.1
		c2.1,6.3,2.2,12.5,0.1,18.6c-2.1,6.1-5.9,11-11.4,14.7c-1.3,0.9-4.4,2.4-5.9,2.9c-5.7,2-11.5,2.1-17.2,0.5c-2-0.6-4.5-1.6-6.1-2.5
		c-0.4-0.2-0.7-0.4-0.7-0.4s-0.1,0.4-0.1,0.8c-0.2,1.9-0.9,4.4-1.7,6.4c-2.2,5.4-5.8,9.9-10.6,13.1
		C103.4,11778.6,100.4,11780.2,99.6,11780.6z"/>
</g>
<g transform="translate(0.000000,1189.000000) scale(0.100000,-0.100000)">
	<path class="st2" d="M155.3,11861.4c0,0-0.2,0-0.3,0.1c-2.7,0.6-5.6-0.6-7-3.1c-0.6-1.1-1-2.6-1.1-4.1c0-1.5,0.3-2.9,1.2-4.7
		c0.4-0.8,0.7-1.5,1.9-3.6c0.3-0.5,0.6-1.1,0.7-1.2c1.3-2.3,2-4.1,2.6-6l0.1-0.4l0.2-0.1l0.2-0.1l0.3,0.3c1.5,1.1,3.1,2,5.4,3
		c0.4,0.2,1,0.4,2.4,1c2.2,0.9,3.4,1.5,4.4,2.2c1.6,1.1,2.7,2.3,3.5,3.9c0.2,0.3,0.4,1.2,0.5,1.5c0.3,1.5,0.1,2.9-0.5,4.3
		s-1.7,2.4-3,3c-0.3,0.2-1.1,0.4-1.4,0.5c-1.4,0.3-2.7,0.2-3.9-0.4c-0.4-0.2-1-0.5-1.3-0.8c-0.1-0.1-0.2-0.1-0.2-0.1s0,0.1-0.1,0.2
		c-0.1,0.4-0.3,1-0.6,1.4c-0.7,1.2-1.6,2.1-2.8,2.7C156.2,11861.1,155.5,11861.4,155.3,11861.4z"/>
</g>
<g transform="translate(0.000000,1189.000000) scale(0.100000,-0.100000)">
	<path class="st2" d="M552.6,11066.8c-0.1,0-0.5,0.2-0.9,0.3c-7.4,2.6-15.8,0.2-20.6-6.1c-2.2-2.8-3.8-7-4.4-10.9
		c-0.6-4.1-0.1-8.2,1.6-13.5c0.8-2.5,1.5-4.4,4.1-10.6c0.6-1.5,1.3-3.2,1.5-3.7c2.7-6.7,4.3-12,5.2-17.5l0.2-1.2l0.6-0.3l0.6-0.3
		l1.1,0.6c4.5,2.6,9.3,4.5,16,6.5c1.3,0.4,2.8,0.8,7,2c6.5,1.8,9.9,3,13,4.5c4.9,2.4,8.3,5.3,10.9,9.6c0.5,0.9,1.6,3.1,1.9,4
		c1.4,4,1.4,8.1,0.1,12s-3.8,7.1-7.4,9.5c-0.9,0.6-2.8,1.5-3.8,1.9c-3.7,1.3-7.4,1.4-11.1,0.3c-1.3-0.4-2.9-1-3.9-1.6
		c-0.2-0.1-0.5-0.3-0.5-0.2s-0.1,0.2-0.1,0.5c-0.2,1.2-0.6,2.9-1.1,4.1c-1.4,3.5-3.7,6.4-6.9,8.4
		C555.1,11065.6,553.2,11066.6,552.6,11066.8z"/>
</g>
<g transform="translate(0.000000,1189.000000) scale(0.100000,-0.100000)">
	<path class="st2" d="M491.9,11033.7c-0.1,0-0.4-0.1-0.6-0.1c-5.2-1.1-9.1-5.4-9.7-10.6c-0.3-2.4,0.2-5.3,1.3-7.7
		c1.1-2.6,2.8-4.7,5.6-7.2c1.3-1.2,2.4-2,6-4.7c0.9-0.6,1.8-1.4,2.2-1.6c3.9-2.9,6.6-5.4,9-8.2l0.5-0.6h0.5h0.5l0.4,0.7
		c1.7,3.1,3.8,5.9,6.9,9.3c0.6,0.7,1.3,1.4,3.3,3.6c3.1,3.3,4.6,5.2,5.9,7.1c2,3.1,2.9,5.9,2.9,9.3c0,0.7-0.1,2.3-0.3,2.9
		c-0.6,2.8-2,5.1-4.1,6.9c-2.1,1.8-4.7,2.7-7.5,2.9c-0.7,0-2.2-0.1-2.8-0.3c-2.5-0.6-4.7-1.8-6.5-3.7c-0.6-0.7-1.3-1.6-1.7-2.3
		c-0.1-0.2-0.2-0.3-0.2-0.3s-0.1,0.1-0.2,0.3c-0.5,0.6-1.3,1.4-2.1,2c-2,1.5-4.3,2.3-6.9,2.5
		C493.8,11033.8,492.3,11033.8,491.9,11033.7z"/>
</g>
<g transform="translate(0.000000,1189.000000) scale(0.100000,-0.100000)">
	<path class="st2" d="M523.2,10939.6c-0.1,0-0.3,0-0.5-0.1c-3.8-0.7-6.7-3.7-7.3-7.5c-0.2-1.7,0.1-3.9,0.8-5.7
		c0.8-1.9,1.9-3.5,3.9-5.4c0.9-0.9,1.7-1.5,4.3-3.5c0.6-0.5,1.3-1,1.5-1.2c2.8-2.2,4.7-4.1,6.4-6.2l0.4-0.5h0.3h0.3l0.3,0.5
		c1.3,2.2,2.9,4.2,5.2,6.6c0.5,0.5,1,1,2.5,2.5c2.3,2.3,3.5,3.7,4.4,5c1.5,2.2,2.2,4.3,2.3,6.7c0,0.5-0.1,1.7-0.1,2.1
		c-0.4,2-1.4,3.8-2.9,5.1s-3.3,2.1-5.4,2.3c-0.5,0-1.6,0-2.1-0.1c-1.9-0.3-3.5-1.2-4.8-2.5c-0.5-0.5-1-1.1-1.3-1.6
		c-0.1-0.1-0.1-0.2-0.1-0.2s-0.1,0.1-0.2,0.2c-0.4,0.5-0.9,1.1-1.5,1.5c-1.4,1.1-3.1,1.8-4.9,1.9
		C524.6,10939.6,523.5,10939.6,523.2,10939.6z"/>
</g>
<g transform="translate(0.000000,1189.000000) scale(0.100000,-0.100000)">
	<path class="st2" d="M633.7,11055.2c-0.1-0.1-0.3-0.2-0.6-0.4c-4.6-3.3-6.6-9.3-4.9-14.8c0.8-2.4,2.6-5.1,4.7-7.1
		c2.2-2,4.9-3.4,8.7-4.6c1.8-0.6,3.3-0.9,8-1.9c1.1-0.2,2.4-0.5,2.8-0.6c5.1-1.2,8.9-2.4,12.5-4.1l0.8-0.4l0.4,0.2l0.4,0.2l0.1,0.9
		c0.3,3.8,1.1,7.4,2.7,12.2c0.3,0.9,0.7,2,1.7,5c1.6,4.6,2.3,7.2,2.7,9.6c0.6,3.9,0.2,7.1-1.2,10.5c-0.3,0.7-1.2,2.2-1.6,2.8
		c-1.8,2.5-4.2,4.2-7.1,5s-5.8,0.7-8.7-0.5c-0.7-0.3-2.1-1.1-2.7-1.5c-2.3-1.7-3.9-3.8-4.8-6.5c-0.3-0.9-0.6-2.1-0.6-3
		c0-0.2,0-0.4,0-0.4s-0.2,0.1-0.4,0.2c-0.8,0.4-2,0.8-2.9,1c-2.7,0.6-5.3,0.4-7.9-0.6C635.5,11056.2,634.1,11055.5,633.7,11055.2z"
		/>
</g>
<g transform="translate(0.000000,1189.000000) scale(0.100000,-0.100000)">
	<path class="st2" d="M584.5,11002.2c-0.2,0.1-0.8,0.3-1.4,0.5c-11.5,4.1-24.4,0.3-31.9-9.4c-3.3-4.3-5.9-10.8-6.7-16.9
		c-0.9-6.4-0.1-12.7,2.4-20.9c1.2-3.9,2.4-6.9,6.3-16.4c1-2.3,2-4.9,2.4-5.7c4.2-10.4,6.6-18.6,8-27l0.3-1.8l1-0.5l1-0.5l1.6,0.9
		c7,4,14.5,7,24.8,10.1c2,0.6,4.3,1.3,10.8,3.1c10,2.8,15.4,4.6,20.1,6.9c7.7,3.7,12.8,8.2,16.9,14.8c0.8,1.4,2.5,4.8,3,6.1
		c2.1,6.3,2.2,12.5,0.1,18.6c-2.1,6.1-5.9,11-11.4,14.7c-1.3,0.9-4.4,2.4-5.9,2.9c-5.7,2-11.5,2.1-17.2,0.5c-2-0.6-4.5-1.6-6.1-2.5
		c-0.4-0.2-0.7-0.4-0.7-0.4s-0.1,0.4-0.1,0.8c-0.2,1.9-0.9,4.4-1.7,6.4c-2.2,5.4-5.8,9.9-10.6,13.1
		C588.4,11000.3,585.4,11001.9,584.5,11002.2z"/>
</g>
<g transform="translate(0.000000,1189.000000) scale(0.100000,-0.100000)">
	<path class="st2" d="M670.8,10931c0,0-0.2,0-0.3,0.1c-2.7,0.6-5.6-0.6-7-3.1c-0.6-1.1-1-2.6-1.1-4.1c0-1.5,0.3-2.9,1.2-4.7
		c0.4-0.8,0.7-1.5,1.9-3.6c0.3-0.5,0.6-1.1,0.7-1.2c1.3-2.3,2-4.1,2.6-6l0.1-0.4l0.2-0.1l0.2-0.1l0.3,0.3c1.5,1.1,3.1,2,5.4,3
		c0.4,0.2,1,0.4,2.4,1c2.2,0.9,3.4,1.5,4.4,2.2c1.6,1.1,2.7,2.3,3.5,3.9c0.2,0.3,0.4,1.2,0.5,1.5c0.3,1.5,0.1,2.9-0.5,4.3
		c-0.6,1.3-1.7,2.4-3,3c-0.3,0.2-1.1,0.4-1.4,0.5c-1.4,0.3-2.7,0.2-3.9-0.4c-0.4-0.2-1-0.5-1.3-0.8c-0.1-0.1-0.2-0.1-0.2-0.1
		s0,0.1-0.1,0.2c-0.1,0.4-0.3,1-0.6,1.4c-0.7,1.2-1.6,2.1-2.8,2.7C671.7,10930.6,671,10930.9,670.8,10931z"/>
</g>
<rect y="99.1" width="70" height="0.9"/>
</svg>
