<?xml version="1.0" encoding="utf-8"?>
<!-- Generator: Adobe Illustrator 23.1.0, SVG Export Plug-In . SVG Version: 6.00 Build 0)  -->
<svg version="1.1" id="Слой_1" xmlns="http://www.w3.org/2000/svg" xmlns:xlink="http://www.w3.org/1999/xlink" x="0px" y="0px"
	 viewBox="0 0 70 100" style="enable-background:new 0 0 70 100;" xml:space="preserve">
<style type="text/css">
	.st0{fill:#0F0F0F;}
	.st1{fill:#FFFFFF;}
</style>
<rect x="0" y="0" class="st0" width="70" height="100"/>
<g>
	<path class="st1" d="M33.6,69.2c-2.7,0-5.5,0-8.2,0c-1.3,0-2.1-0.5-2.6-1.6c-0.4-0.7-0.6-1.5-0.7-2.3C21.5,59.5,23,54.4,27,50.1
		c3.3-3.5,7-6.4,11.5-8.3c1.4-0.6,2.7-1.5,3.9-2.5c3.1-2.7,4.6-8.6-1.1-11.8c-4.7-2.7-9.5-2.7-14.3-0.3c-1.5,0.8-2.7,2-3.8,3.3
		c-1.5,1.7-2.9,3.4-4.4,5.1c-1.5,1.8-2.9,2-4.8,0.6c-3.9-2.9-7.7-5.8-11.5-8.8c-1.3-1-1.6-2.5-0.8-4c1.5-2.6,3.2-5,5.2-7.2
		c3.1-3.5,6.7-6.3,10.8-8.3c3.8-1.9,7.9-3.1,12.2-3.5c3-0.3,5.9-0.4,8.9-0.1c4,0.4,7.7,1.6,11.3,3.3c3.6,1.7,7,3.9,9.9,6.7
		c3.5,3.5,6.2,7.5,7.6,12.3c1.4,4.9,1.2,9.8-0.4,14.7c-2.1,6.4-6.9,10.3-12.4,13.5c-3.2,1.8-6.2,3.8-8,7.1c-0.7,1.3-1.3,2.6-1.4,4.1
		c-0.3,2.2-1.6,3.4-3.8,3.4C38.9,69.2,36.2,69.2,33.6,69.2z"/>
	<path class="st1" d="M33.8,73.6c2.8,0,5.6,0,8.4,0c2.1,0,3.4,1.2,3.4,3.3c0,5.6,0,11.2,0,16.8c0,2.1-1.3,3.3-3.4,3.3
		c-5.6,0-11.2,0-16.8,0c-2.1,0-3.4-1.2-3.4-3.3c0-5.6,0-11.2,0-16.8c0-2.1,1.3-3.3,3.4-3.3C28.2,73.6,31,73.6,33.8,73.6z"/>
</g>
</svg>
